<svg width="111" height="46" viewBox="0 0 111 46" fill="none" xmlns="http://www.w3.org/2000/svg">
<path d="M0.475357 0.465135C0.471579 0.431602 0.455993 0.405627 0.428601 0.387207C0.401208 0.368552 0.366731 0.359224 0.32517 0.359224C0.295416 0.359224 0.269676 0.363947 0.247951 0.373393C0.226226 0.382602 0.209341 0.395354 0.197298 0.411648C0.185491 0.427706 0.179587 0.446007 0.179587 0.466552C0.179587 0.48379 0.183602 0.498667 0.191631 0.511183C0.199896 0.523698 0.21064 0.534207 0.223864 0.542708C0.237324 0.550973 0.251729 0.557939 0.267078 0.563607C0.282428 0.569038 0.297187 0.573525 0.311355 0.577067L0.382198 0.595486C0.405341 0.601153 0.429073 0.608828 0.453396 0.61851C0.477719 0.628192 0.50027 0.640944 0.521051 0.656765C0.541832 0.672587 0.558598 0.692187 0.571349 0.715565C0.584337 0.738943 0.590831 0.766926 0.590831 0.799514C0.590831 0.840603 0.580205 0.877087 0.558952 0.908967C0.537935 0.940846 0.507355 0.965995 0.46721 0.984415C0.427302 1.00283 0.379011 1.01204 0.322336 1.01204C0.268023 1.01204 0.22103 1.00342 0.181358 0.986186C0.141686 0.968947 0.110633 0.944506 0.0881996 0.912863C0.065766 0.880984 0.0533685 0.843201 0.051007 0.799514H0.160814C0.162939 0.825726 0.17144 0.847569 0.186317 0.865044C0.201431 0.882282 0.220676 0.895152 0.244054 0.903653C0.267669 0.911918 0.293527 0.916051 0.321628 0.916051C0.352562 0.916051 0.380073 0.91121 0.40416 0.901528C0.428483 0.89161 0.44761 0.877914 0.461543 0.860439C0.475475 0.842728 0.482441 0.822066 0.482441 0.798451C0.482441 0.776962 0.476302 0.75937 0.464022 0.745673C0.451979 0.731977 0.435567 0.720642 0.414786 0.711669C0.394242 0.702695 0.370982 0.694784 0.345006 0.687936L0.259286 0.664558C0.201194 0.648736 0.155146 0.625476 0.121142 0.594778C0.0873731 0.564079 0.0704889 0.523462 0.0704889 0.472927C0.0704889 0.43113 0.0818238 0.394646 0.104494 0.363475C0.127163 0.332304 0.157862 0.308099 0.19659 0.290861C0.235317 0.273386 0.279004 0.264649 0.327649 0.264649C0.376767 0.264649 0.420099 0.273268 0.457646 0.290507C0.495429 0.307745 0.525183 0.331477 0.546909 0.361704C0.568634 0.391694 0.579969 0.426171 0.580913 0.465135H0.475357ZM1.35177 0.637283C1.35177 0.714739 1.33761 0.781331 1.30927 0.837061C1.28093 0.892555 1.24209 0.935297 1.19273 0.965287C1.14361 0.995041 1.08777 1.00992 1.02519 1.00992C0.962374 1.00992 0.90629 0.995041 0.856936 0.965287C0.807818 0.935297 0.76909 0.892437 0.740753 0.836707C0.712416 0.780977 0.698247 0.714502 0.698247 0.637283C0.698247 0.559828 0.712416 0.493354 0.740753 0.43786C0.76909 0.38213 0.807818 0.339388 0.856936 0.309634C0.90629 0.279644 0.962374 0.264649 1.02519 0.264649C1.08777 0.264649 1.14361 0.279644 1.19273 0.309634C1.24209 0.339388 1.28093 0.38213 1.30927 0.43786C1.33761 0.493354 1.35177 0.559828 1.35177 0.637283ZM1.24338 0.637283C1.24338 0.578247 1.23382 0.528539 1.21469 0.488159C1.1958 0.447542 1.16983 0.416843 1.13677 0.396063C1.10394 0.375046 1.06675 0.364538 1.02519 0.364538C0.983391 0.364538 0.94608 0.375046 0.913256 0.396063C0.880432 0.416843 0.854456 0.447542 0.835329 0.488159C0.816437 0.528539 0.806991 0.578247 0.806991 0.637283C0.806991 0.696319 0.816437 0.746146 0.835329 0.786762C0.854456 0.827143 0.880432 0.857842 0.913256 0.878858C0.94608 0.899639 0.983391 0.910029 1.02519 0.910029C1.06675 0.910029 1.10394 0.899639 1.13677 0.878858C1.16983 0.857842 1.1958 0.827143 1.21469 0.786762C1.23382 0.746146 1.24338 0.696319 1.24338 0.637283ZM1.48824 1V0.274567H1.59769V0.905779H1.9264V1H1.48824ZM2.04356 0.274567L2.24546 0.865398H2.25361L2.45551 0.274567H2.57382L2.31276 1H2.18631L1.92525 0.274567H2.04356ZM2.78803 0.274567V1H2.67858V0.274567H2.78803ZM3.53294 0.274567V1H3.43235L3.06361 0.467968H3.05688V1H2.94743V0.274567H3.04873L3.41782 0.807307H3.42455V0.274567H3.53294ZM4.18355 0.503744C4.1767 0.482255 4.16749 0.463009 4.15592 0.446007C4.14459 0.428769 4.13101 0.414128 4.11519 0.402084C4.09936 0.389805 4.0813 0.380477 4.06099 0.374101C4.04092 0.367725 4.01884 0.364538 3.99475 0.364538C3.9539 0.364538 3.91706 0.375046 3.88424 0.396063C3.85141 0.41708 3.82544 0.447896 3.80631 0.488513C3.78742 0.528893 3.77797 0.578366 3.77797 0.636929C3.77797 0.695729 3.78754 0.745437 3.80666 0.786054C3.82579 0.826671 3.852 0.857487 3.8853 0.878504C3.9186 0.899521 3.9565 0.910029 3.999 0.910029C4.03844 0.910029 4.0728 0.902 4.10208 0.885943C4.1316 0.869885 4.15439 0.847215 4.17044 0.817933C4.18674 0.788415 4.19488 0.753702 4.19488 0.713794L4.22322 0.719107H4.01565V0.628782H4.3008V0.711314C4.3008 0.772239 4.28781 0.825136 4.26183 0.870003C4.23609 0.914634 4.20043 0.949111 4.15486 0.973434C4.10952 0.997757 4.05757 1.00992 3.999 1.00992C3.93336 1.00992 3.87574 0.994805 3.82615 0.964578C3.77679 0.934352 3.7383 0.891492 3.71067 0.835998C3.68304 0.780268 3.66923 0.714148 3.66923 0.637638C3.66923 0.579782 3.67726 0.527831 3.69332 0.481783C3.70937 0.435735 3.73193 0.396653 3.76097 0.364538C3.79025 0.332186 3.82461 0.307509 3.86405 0.290507C3.90372 0.273268 3.94705 0.264649 3.99404 0.264649C4.03324 0.264649 4.06973 0.270434 4.1035 0.282005C4.1375 0.293576 4.16773 0.309988 4.19418 0.331241C4.22086 0.352494 4.24294 0.377762 4.26041 0.407043C4.27789 0.436089 4.2897 0.468323 4.29584 0.503744H4.18355ZM5.30624 0.510474H5.19572C5.19147 0.48686 5.18356 0.466079 5.17199 0.448132C5.16042 0.430185 5.14625 0.414954 5.12948 0.402439C5.11272 0.389923 5.09394 0.380477 5.07316 0.374101C5.05262 0.367725 5.03077 0.364538 5.00763 0.364538C4.96583 0.364538 4.92841 0.375046 4.89535 0.396063C4.86252 0.41708 4.83655 0.447896 4.81742 0.488513C4.79853 0.52913 4.78908 0.57872 4.78908 0.637283C4.78908 0.696319 4.79853 0.746146 4.81742 0.786762C4.83655 0.827379 4.86264 0.858078 4.8957 0.878858C4.92876 0.899639 4.96595 0.910029 5.00728 0.910029C5.03018 0.910029 5.05191 0.906959 5.07245 0.90082C5.09323 0.894444 5.11201 0.885116 5.12877 0.872837C5.14554 0.860557 5.15971 0.845562 5.17128 0.827851C5.18309 0.809904 5.19123 0.78936 5.19572 0.766218L5.30624 0.766572C5.30033 0.80223 5.28888 0.835054 5.27188 0.865044C5.25511 0.894798 5.2335 0.920538 5.20706 0.942263C5.18084 0.963752 5.15085 0.9804 5.11708 0.992207C5.08332 1.00401 5.04648 1.00992 5.00657 1.00992C4.94376 1.00992 4.88779 0.995041 4.83867 0.965287C4.78955 0.935297 4.75083 0.892437 4.72249 0.836707C4.69439 0.780977 4.68034 0.714502 4.68034 0.637283C4.68034 0.559828 4.69451 0.493354 4.72284 0.43786C4.75118 0.38213 4.78991 0.339388 4.83903 0.309634C4.88814 0.279644 4.94399 0.264649 5.00657 0.264649C5.04506 0.264649 5.08095 0.270198 5.11425 0.281297C5.14778 0.29216 5.17789 0.308217 5.20458 0.32947C5.23126 0.350487 5.25334 0.376227 5.27081 0.406689C5.28829 0.436916 5.3001 0.471511 5.30624 0.510474ZM5.43721 1V0.274567H5.54666V0.589819H5.90831V0.274567H6.01812V1H5.90831V0.683686H5.54666V1H5.43721ZM6.2388 1H6.12261L6.38367 0.274567H6.51013L6.77118 1H6.655L6.44991 0.406335H6.44424L6.2388 1ZM6.25828 0.715919H6.63516V0.808015H6.25828V0.715919ZM6.87594 1V0.274567H6.98539V0.905779H7.31411V1H6.87594ZM7.43897 1V0.274567H7.54842V0.905779H7.87713V1H7.43897ZM8.00199 1V0.274567H8.4568V0.368788H8.11144V0.589819H8.43307V0.683686H8.11144V0.905779H8.46106V1H8.00199ZM9.18853 0.274567V1H9.08793L8.71919 0.467968H8.71246V1H8.60301V0.274567H8.70431L9.07341 0.807307H9.08014V0.274567H9.18853ZM9.83913 0.503744C9.83228 0.482255 9.82307 0.463009 9.8115 0.446007C9.80017 0.428769 9.78659 0.414128 9.77077 0.402084C9.75494 0.389805 9.73688 0.380477 9.71657 0.374101C9.6965 0.367725 9.67442 0.364538 9.65033 0.364538C9.60948 0.364538 9.57264 0.375046 9.53982 0.396063C9.50699 0.41708 9.48102 0.447896 9.46189 0.488513C9.443 0.528893 9.43355 0.578366 9.43355 0.636929C9.43355 0.695729 9.44312 0.745437 9.46224 0.786054C9.48137 0.826671 9.50758 0.857487 9.54088 0.878504C9.57418 0.899521 9.61208 0.910029 9.65458 0.910029C9.69402 0.910029 9.72838 0.902 9.75766 0.885943C9.78718 0.869885 9.80997 0.847215 9.82602 0.817933C9.84232 0.788415 9.85046 0.753702 9.85046 0.713794L9.8788 0.719107H9.67123V0.628782H9.95638V0.711314C9.95638 0.772239 9.94339 0.825136 9.91741 0.870003C9.89167 0.914634 9.85601 0.949111 9.81044 0.973434C9.7651 0.997757 9.71315 1.00992 9.65458 1.00992C9.58894 1.00992 9.53132 0.994805 9.48173 0.964578C9.43237 0.934352 9.39388 0.891492 9.36625 0.835998C9.33862 0.780268 9.32481 0.714148 9.32481 0.637638C9.32481 0.579782 9.33284 0.527831 9.3489 0.481783C9.36495 0.435735 9.38751 0.396653 9.41655 0.364538C9.44583 0.332186 9.48019 0.307509 9.51963 0.290507C9.5593 0.273268 9.60263 0.264649 9.64962 0.264649C9.68882 0.264649 9.72531 0.270434 9.75908 0.282005C9.79308 0.293576 9.82331 0.309988 9.84976 0.331241C9.87644 0.352494 9.89852 0.377762 9.91599 0.407043C9.93347 0.436089 9.94528 0.468323 9.95142 0.503744H9.83913ZM10.0953 1V0.274567H10.5501V0.368788H10.2048V0.589819H10.5264V0.683686H10.2048V0.905779H10.5544V1H10.0953ZM11.092 0.465135C11.0882 0.431602 11.0726 0.405627 11.0452 0.387207C11.0178 0.368552 10.9834 0.359224 10.9418 0.359224C10.912 0.359224 10.8863 0.363947 10.8646 0.373393C10.8429 0.382602 10.826 0.395354 10.8139 0.411648C10.8021 0.427706 10.7962 0.446007 10.7962 0.466552C10.7962 0.48379 10.8002 0.498667 10.8083 0.511183C10.8165 0.523698 10.8273 0.534207 10.8405 0.542708C10.854 0.550973 10.8684 0.557939 10.8837 0.563607C10.8991 0.569038 10.9138 0.573525 10.928 0.577067L10.9988 0.595486C11.022 0.601153 11.0457 0.608828 11.07 0.61851C11.0944 0.628192 11.1169 0.640944 11.1377 0.656765C11.1585 0.672587 11.1752 0.692187 11.188 0.715565C11.201 0.738943 11.2075 0.766926 11.2075 0.799514C11.2075 0.840603 11.1968 0.877087 11.1756 0.908967C11.1546 0.940846 11.124 0.965995 11.0838 0.984415C11.0439 1.00283 10.9956 1.01204 10.939 1.01204C10.8847 1.01204 10.8377 1.00342 10.798 0.986186C10.7583 0.968947 10.7273 0.944506 10.7048 0.912863C10.6824 0.880984 10.67 0.843201 10.6676 0.799514H10.7774C10.7796 0.825726 10.7881 0.847569 10.803 0.865044C10.8181 0.882282 10.8373 0.895152 10.8607 0.903653C10.8843 0.911918 10.9102 0.916051 10.9383 0.916051C10.9692 0.916051 10.9967 0.91121 11.0208 0.901528C11.0451 0.89161 11.0642 0.877914 11.0782 0.860439C11.0921 0.842728 11.0991 0.822066 11.0991 0.798451C11.0991 0.776962 11.0929 0.75937 11.0807 0.745673C11.0686 0.731977 11.0522 0.720642 11.0314 0.711669C11.0109 0.702695 10.9876 0.694784 10.9616 0.687936L10.8759 0.664558C10.8178 0.648736 10.7718 0.625476 10.7378 0.594778C10.704 0.564079 10.6871 0.523462 10.6871 0.472927C10.6871 0.43113 10.6985 0.394646 10.7211 0.363475C10.7438 0.332304 10.7745 0.308099 10.8132 0.290861C10.852 0.273386 10.8956 0.264649 10.9443 0.264649C10.9934 0.264649 11.0367 0.273268 11.0743 0.290507C11.1121 0.307745 11.1418 0.331477 11.1635 0.361704C11.1853 0.391694 11.1966 0.426171 11.1975 0.465135H11.092Z" fill="black"/>
<path d="M102.641 1.0108C102.596 1.0108 102.556 0.9994 102.521 0.976605C102.486 0.953569 102.459 0.920816 102.439 0.878344C102.419 0.835633 102.409 0.784403 102.409 0.724655C102.409 0.664906 102.419 0.613797 102.439 0.571325C102.459 0.528853 102.487 0.49634 102.522 0.473784C102.557 0.451229 102.597 0.439951 102.641 0.439951C102.676 0.439951 102.703 0.44571 102.724 0.457228C102.745 0.468505 102.761 0.481703 102.773 0.49682C102.785 0.511937 102.794 0.525254 102.8 0.536772H102.807V0.262866H102.914V1H102.809V0.913977H102.8C102.794 0.925735 102.784 0.939172 102.772 0.954289C102.76 0.969406 102.744 0.982603 102.723 0.993881C102.701 1.00516 102.674 1.0108 102.641 1.0108ZM102.664 0.919016C102.695 0.919016 102.721 0.910858 102.743 0.894541C102.764 0.877984 102.781 0.855069 102.792 0.825795C102.803 0.79652 102.809 0.762447 102.809 0.723575C102.809 0.685182 102.803 0.651589 102.792 0.622795C102.781 0.594001 102.765 0.571565 102.743 0.555488C102.722 0.539411 102.696 0.531373 102.664 0.531373C102.632 0.531373 102.605 0.539771 102.583 0.556568C102.562 0.573365 102.545 0.59628 102.534 0.625314C102.524 0.654349 102.518 0.687102 102.518 0.723575C102.518 0.760528 102.524 0.793761 102.535 0.823275C102.546 0.852789 102.562 0.876185 102.584 0.893461C102.605 0.910498 102.632 0.919016 102.664 0.919016ZM103.068 1V0.44715H103.172V0.534972H103.178C103.188 0.505218 103.206 0.481823 103.231 0.464786C103.257 0.44751 103.286 0.438871 103.318 0.438871C103.325 0.438871 103.333 0.439111 103.342 0.439591C103.351 0.440071 103.359 0.440671 103.364 0.441391V0.54433C103.36 0.543131 103.352 0.541811 103.341 0.540371C103.33 0.538692 103.319 0.537852 103.308 0.537852C103.282 0.537852 103.26 0.543251 103.24 0.554048C103.22 0.564606 103.204 0.579363 103.193 0.59832C103.181 0.617036 103.176 0.638392 103.176 0.662387V1H103.068ZM103.457 1V0.44715H103.565V1H103.457ZM103.511 0.361847C103.493 0.361847 103.477 0.355608 103.463 0.34313C103.45 0.330413 103.443 0.315296 103.443 0.297779C103.443 0.280023 103.45 0.264906 103.463 0.252428C103.477 0.239711 103.493 0.233352 103.511 0.233352C103.53 0.233352 103.546 0.239711 103.559 0.252428C103.573 0.264906 103.579 0.280023 103.579 0.297779C103.579 0.315296 103.573 0.330413 103.559 0.34313C103.546 0.355608 103.53 0.361847 103.511 0.361847ZM104.182 0.44715L103.982 1H103.867L103.666 0.44715H103.781L103.921 0.872585H103.927L104.067 0.44715H104.182ZM104.284 1V0.44715H104.391V1H104.284ZM104.338 0.361847C104.319 0.361847 104.303 0.355608 104.29 0.34313C104.276 0.330413 104.27 0.315296 104.27 0.297779C104.27 0.280023 104.276 0.264906 104.29 0.252428C104.303 0.239711 104.319 0.233352 104.338 0.233352C104.357 0.233352 104.373 0.239711 104.386 0.252428C104.399 0.264906 104.406 0.280023 104.406 0.297779C104.406 0.315296 104.399 0.330413 104.386 0.34313C104.373 0.355608 104.357 0.361847 104.338 0.361847ZM104.644 0.671745V1H104.536V0.44715H104.639V0.537132H104.646C104.659 0.507858 104.679 0.484342 104.706 0.466586C104.733 0.448829 104.768 0.439951 104.809 0.439951C104.847 0.439951 104.88 0.44787 104.908 0.463706C104.936 0.479303 104.958 0.502579 104.974 0.533533C104.99 0.564486 104.997 0.602759 104.997 0.64835V1H104.89V0.661307C104.89 0.621235 104.879 0.589921 104.858 0.567366C104.838 0.54457 104.809 0.533173 104.772 0.533173C104.747 0.533173 104.725 0.538572 104.706 0.549369C104.687 0.560167 104.671 0.576004 104.66 0.59688C104.649 0.617516 104.644 0.642471 104.644 0.671745ZM105.373 1.21884C105.33 1.21884 105.292 1.21308 105.26 1.20156C105.229 1.19004 105.203 1.17481 105.183 1.15585C105.163 1.13689 105.148 1.11614 105.138 1.09358L105.231 1.05543C105.237 1.06599 105.246 1.07714 105.257 1.0889C105.268 1.1009 105.283 1.1111 105.301 1.1195C105.32 1.12789 105.345 1.13209 105.375 1.13209C105.415 1.13209 105.449 1.12214 105.476 1.10222C105.502 1.08254 105.516 1.05111 105.516 1.00792V0.89922H105.509C105.502 0.910978 105.493 0.924055 105.481 0.938452C105.469 0.952849 105.452 0.965327 105.431 0.975885C105.41 0.986443 105.382 0.991722 105.349 0.991722C105.305 0.991722 105.266 0.981524 105.231 0.961128C105.196 0.940492 105.168 0.910138 105.148 0.870066C105.128 0.829754 105.118 0.780204 105.118 0.721415C105.118 0.662627 105.128 0.612237 105.147 0.570245C105.168 0.528254 105.195 0.4961 105.23 0.473784C105.265 0.451229 105.305 0.439951 105.349 0.439951C105.384 0.439951 105.411 0.44571 105.432 0.457228C105.454 0.468505 105.47 0.481703 105.482 0.49682C105.494 0.511937 105.503 0.525254 105.51 0.536772H105.517V0.44715H105.623V1.01224C105.623 1.05975 105.612 1.09874 105.59 1.12921C105.568 1.15969 105.538 1.18224 105.5 1.19688C105.463 1.21152 105.42 1.21884 105.373 1.21884ZM105.372 0.902459C105.403 0.902459 105.429 0.895261 105.451 0.880864C105.472 0.866227 105.489 0.845351 105.5 0.818236C105.511 0.790881 105.517 0.758128 105.517 0.719976C105.517 0.682783 105.511 0.650029 105.5 0.621715C105.489 0.593401 105.473 0.571325 105.452 0.555488C105.43 0.539411 105.404 0.531373 105.372 0.531373C105.34 0.531373 105.313 0.539771 105.291 0.556568C105.27 0.573125 105.253 0.59568 105.242 0.624235C105.232 0.652789 105.226 0.684703 105.226 0.719976C105.226 0.756208 105.232 0.788002 105.243 0.815357C105.254 0.842711 105.27 0.864067 105.292 0.879424C105.314 0.894781 105.34 0.902459 105.372 0.902459ZM106.035 1V0.44715H106.143V1H106.035ZM106.09 0.361847C106.071 0.361847 106.055 0.355608 106.042 0.34313C106.028 0.330413 106.022 0.315296 106.022 0.297779C106.022 0.280023 106.028 0.264906 106.042 0.252428C106.055 0.239711 106.071 0.233352 106.09 0.233352C106.109 0.233352 106.124 0.239711 106.138 0.252428C106.151 0.264906 106.158 0.280023 106.158 0.297779C106.158 0.315296 106.151 0.330413 106.138 0.34313C106.124 0.355608 106.109 0.361847 106.09 0.361847ZM106.395 0.671745V1H106.288V0.44715H106.391V0.537132H106.398C106.411 0.507858 106.431 0.484342 106.458 0.466586C106.485 0.448829 106.52 0.439951 106.561 0.439951C106.599 0.439951 106.632 0.44787 106.66 0.463706C106.688 0.479303 106.71 0.502579 106.726 0.533533C106.741 0.564486 106.749 0.602759 106.749 0.64835V1H106.642V0.661307C106.642 0.621235 106.631 0.589921 106.61 0.567366C106.589 0.54457 106.561 0.533173 106.524 0.533173C106.499 0.533173 106.477 0.538572 106.458 0.549369C106.439 0.560167 106.423 0.576004 106.412 0.59688C106.401 0.617516 106.395 0.642471 106.395 0.671745ZM107.001 0.671745V1H106.894V0.44715H106.997V0.537132H107.004C107.016 0.507858 107.036 0.484342 107.064 0.466586C107.091 0.448829 107.125 0.439951 107.167 0.439951C107.204 0.439951 107.237 0.44787 107.266 0.463706C107.294 0.479303 107.316 0.502579 107.332 0.533533C107.347 0.564486 107.355 0.602759 107.355 0.64835V1H107.247V0.661307C107.247 0.621235 107.237 0.589921 107.216 0.567366C107.195 0.54457 107.167 0.533173 107.13 0.533173C107.105 0.533173 107.083 0.538572 107.064 0.549369C107.044 0.560167 107.029 0.576004 107.018 0.59688C107.007 0.617516 107.001 0.642471 107.001 0.671745ZM107.732 1.01116C107.68 1.01116 107.635 0.99928 107.597 0.975525C107.558 0.95177 107.528 0.918536 107.507 0.875825C107.485 0.833113 107.475 0.783203 107.475 0.726094C107.475 0.668746 107.485 0.618596 107.507 0.575644C107.528 0.532693 107.558 0.499339 107.597 0.475584C107.635 0.451829 107.68 0.439951 107.732 0.439951C107.784 0.439951 107.829 0.451829 107.868 0.475584C107.907 0.499339 107.937 0.532693 107.958 0.575644C107.979 0.618596 107.99 0.668746 107.99 0.726094C107.99 0.783203 107.979 0.833113 107.958 0.875825C107.937 0.918536 107.907 0.95177 107.868 0.975525C107.829 0.99928 107.784 1.01116 107.732 1.01116ZM107.733 0.920816C107.766 0.920816 107.794 0.911937 107.816 0.894181C107.838 0.876425 107.855 0.852789 107.865 0.823275C107.876 0.793761 107.881 0.761247 107.881 0.725734C107.881 0.690461 107.876 0.658068 107.865 0.628554C107.855 0.5988 107.838 0.574924 107.816 0.556928C107.794 0.538931 107.766 0.529933 107.733 0.529933C107.699 0.529933 107.671 0.538931 107.648 0.556928C107.626 0.574924 107.61 0.5988 107.599 0.628554C107.589 0.658068 107.583 0.690461 107.583 0.725734C107.583 0.761247 107.589 0.793761 107.599 0.823275C107.61 0.852789 107.626 0.876425 107.648 0.894181C107.671 0.911937 107.699 0.920816 107.733 0.920816ZM108.564 0.44715L108.364 1H108.249L108.048 0.44715H108.163L108.303 0.872585H108.309L108.449 0.44715H108.564ZM108.81 1.01224C108.775 1.01224 108.744 1.00576 108.715 0.992801C108.687 0.979604 108.665 0.960528 108.648 0.935573C108.632 0.910618 108.624 0.880024 108.624 0.843791C108.624 0.812597 108.63 0.786922 108.642 0.766766C108.654 0.74661 108.67 0.730653 108.69 0.718896C108.711 0.707138 108.733 0.69826 108.759 0.692261C108.784 0.686262 108.809 0.681703 108.836 0.678584C108.869 0.674745 108.896 0.671625 108.916 0.669226C108.937 0.666586 108.952 0.662387 108.961 0.656628C108.971 0.650869 108.975 0.641511 108.975 0.628554V0.626034C108.975 0.5946 108.966 0.570245 108.949 0.552969C108.931 0.535692 108.905 0.527054 108.87 0.527054C108.834 0.527054 108.805 0.535092 108.784 0.551169C108.764 0.567006 108.75 0.584642 108.742 0.604079L108.641 0.581043C108.653 0.54745 108.67 0.520335 108.693 0.499699C108.716 0.478823 108.743 0.463706 108.773 0.454348C108.804 0.44475 108.835 0.439951 108.869 0.439951C108.891 0.439951 108.914 0.442591 108.939 0.44787C108.964 0.452909 108.987 0.462267 109.009 0.475944C109.031 0.489621 109.048 0.509177 109.062 0.534612C109.076 0.559807 109.083 0.592561 109.083 0.632873V1H108.978V0.924415H108.974C108.967 0.938332 108.956 0.95201 108.943 0.965447C108.929 0.978884 108.911 0.990042 108.889 0.99892C108.867 1.0078 108.841 1.01224 108.81 1.01224ZM108.834 0.925855C108.864 0.925855 108.889 0.919976 108.91 0.908218C108.931 0.896461 108.948 0.881104 108.959 0.862147C108.97 0.842951 108.976 0.822435 108.976 0.8006V0.729334C108.972 0.733173 108.964 0.736772 108.953 0.740132C108.943 0.743251 108.93 0.74601 108.916 0.74841C108.902 0.750569 108.889 0.752609 108.876 0.754529C108.862 0.756208 108.851 0.757648 108.842 0.758848C108.822 0.761487 108.802 0.765926 108.785 0.772165C108.768 0.778404 108.755 0.787402 108.744 0.79916C108.734 0.810678 108.729 0.826035 108.729 0.845231C108.729 0.871865 108.739 0.892021 108.759 0.905699C108.778 0.919136 108.803 0.925855 108.834 0.925855ZM109.485 0.44715V0.533533H109.183V0.44715H109.485ZM109.264 0.314696H109.371V0.837672C109.371 0.858548 109.374 0.874265 109.381 0.884823C109.387 0.895141 109.395 0.902219 109.405 0.906059C109.415 0.909658 109.426 0.911458 109.437 0.911458C109.446 0.911458 109.454 0.910858 109.46 0.909658C109.467 0.908458 109.472 0.907498 109.475 0.906778L109.495 0.995681C109.488 0.99808 109.48 1.00048 109.468 1.00288C109.457 1.00552 109.442 1.00696 109.425 1.0072C109.397 1.00768 109.37 1.00264 109.346 0.992082C109.321 0.981524 109.301 0.965207 109.286 0.943131C109.271 0.921056 109.264 0.893341 109.264 0.859988V0.314696ZM109.604 1V0.44715H109.711V1H109.604ZM109.658 0.361847C109.639 0.361847 109.623 0.355608 109.61 0.34313C109.597 0.330413 109.59 0.315296 109.59 0.297779C109.59 0.280023 109.597 0.264906 109.61 0.252428C109.623 0.239711 109.639 0.233352 109.658 0.233352C109.677 0.233352 109.693 0.239711 109.706 0.252428C109.719 0.264906 109.726 0.280023 109.726 0.297779C109.726 0.315296 109.719 0.330413 109.706 0.34313C109.693 0.355608 109.677 0.361847 109.658 0.361847ZM110.089 1.01116C110.037 1.01116 109.992 0.99928 109.953 0.975525C109.915 0.95177 109.885 0.918536 109.863 0.875825C109.842 0.833113 109.831 0.783203 109.831 0.726094C109.831 0.668746 109.842 0.618596 109.863 0.575644C109.885 0.532693 109.915 0.499339 109.953 0.475584C109.992 0.451829 110.037 0.439951 110.089 0.439951C110.141 0.439951 110.186 0.451829 110.225 0.475584C110.263 0.499339 110.293 0.532693 110.315 0.575644C110.336 0.618596 110.347 0.668746 110.347 0.726094C110.347 0.783203 110.336 0.833113 110.315 0.875825C110.293 0.918536 110.263 0.95177 110.225 0.975525C110.186 0.99928 110.141 1.01116 110.089 1.01116ZM110.089 0.920816C110.123 0.920816 110.151 0.911937 110.173 0.894181C110.195 0.876425 110.211 0.852789 110.222 0.823275C110.233 0.793761 110.238 0.761247 110.238 0.725734C110.238 0.690461 110.233 0.658068 110.222 0.628554C110.211 0.5988 110.195 0.574924 110.173 0.556928C110.151 0.538931 110.123 0.529933 110.089 0.529933C110.055 0.529933 110.027 0.538931 110.005 0.556928C109.983 0.574924 109.967 0.5988 109.956 0.628554C109.945 0.658068 109.94 0.690461 109.94 0.725734C109.94 0.761247 109.945 0.793761 109.956 0.823275C109.967 0.852789 109.983 0.876425 110.005 0.894181C110.027 0.911937 110.055 0.920816 110.089 0.920816ZM110.574 0.671745V1H110.467V0.44715H110.57V0.537132H110.577C110.59 0.507858 110.61 0.484342 110.637 0.466586C110.664 0.448829 110.698 0.439951 110.74 0.439951C110.778 0.439951 110.811 0.44787 110.839 0.463706C110.867 0.479303 110.889 0.502579 110.905 0.533533C110.92 0.564486 110.928 0.602759 110.928 0.64835V1H110.821V0.661307C110.821 0.621235 110.81 0.589921 110.789 0.567366C110.768 0.54457 110.74 0.533173 110.703 0.533173C110.678 0.533173 110.656 0.538572 110.637 0.549369C110.617 0.560167 110.602 0.576004 110.591 0.59688C110.58 0.617516 110.574 0.642471 110.574 0.671745Z" fill="black"/>
<rect width="111" height="42.9242" transform="translate(0 2.80664)" fill="black"/>
<path d="M107.992 9.04102V34.8923H103.014V9.04102H107.992Z" fill="#E3DFDC"/>
<path d="M84.8882 28.1241V27.0761H89.8226V29.9157C89.8226 30.9188 88.8183 34.7179 84.2627 34.8926H83.2331C78.9494 34.8926 77.5957 30.6609 77.5957 28.3425V17.6439C77.5957 15.2979 78.5994 11.3995 84.1391 11.3994C89.1676 11.3994 89.779 16.1155 89.779 16.1155L89.8226 20.1766H84.8882V16.8579C84.8882 16.8579 84.9497 15.6788 83.7965 15.6788C82.6433 15.6788 82.6611 16.8579 82.6611 16.8579L82.5301 28.5171C82.5301 29.5372 82.2681 30.523 83.6655 30.6132C84.9728 30.6975 84.8882 29.0515 84.8882 28.1241Z" fill="#E3DFDC"/>
<path d="M64.8457 29.3468V20.8316C64.8457 17.7085 67.4221 15.8535 71.2212 15.8535C75.0203 15.8535 77.1163 18.5172 77.1163 20.8316L76.898 29.3468C76.898 31.4865 75.9809 34.8489 71.2212 34.9363C66.4614 35.0236 64.8457 31.8734 64.8457 29.3468ZM69.596 22.098V27.9494C69.596 30.2638 70.0422 30.9625 70.9155 30.9625C71.7889 30.9625 72.1819 30.3948 72.1819 27.9494V22.098C72.1819 21.0936 72.3129 19.6089 70.9155 19.6089C69.6491 19.6089 69.596 21.0102 69.596 22.098Z" fill="#E3DFDC"/>
<path d="M57.9161 11.3994H58.7971C62.699 11.3994 64.2094 14.6447 64.2094 17.3382V18.6919H59.3871V16.9015C59.3871 16.1363 59.0814 15.6352 58.2954 15.6352C57.9897 15.5915 56.9091 15.8303 56.9091 16.9015C56.9091 18.1871 57.2448 18.4698 58.8391 19.9695L61.8599 22.8161C63.9996 24.8362 64.4525 26.5957 64.4525 28.6481C64.4525 31.8359 63.0552 34.5433 58.6011 34.9363C54.8251 34.9363 52.7496 33.5826 52.2256 29.7334V27.3381L56.8107 27.3818V28.1678C56.8107 29.2084 57.0735 30.7005 58.1644 30.7005C58.2517 30.7005 59.6362 30.774 59.6362 29.3661L59.5926 28.7355C59.5926 27.1133 56.6531 25.0739 54.933 23.4517C52.9191 21.554 52.2256 19.5158 52.2256 17.2509C52.2256 14.2207 54.1821 11.3994 57.9161 11.3994Z" fill="#E3DFDC"/>
<path d="M39.8672 16.2192H44.7143V17.3813C45.0636 16.8136 45.7359 15.7656 48.0767 15.7656C50.4175 15.7656 51.7885 17.8027 51.7885 19.783V31.4423C51.7885 33.8743 50.0102 35.0496 48.1028 35.0496H48.0161C46.3255 35.0496 45.5382 34.0407 44.758 33.2763V39.4771H39.8672V16.2192ZM44.7143 21.3114V29.0843C44.7143 30.057 45.1124 30.7 45.806 30.7C46.673 30.7 46.9324 29.7393 46.9324 29.0843V21.1804C46.9324 20.3119 46.673 19.783 45.806 19.783C44.9824 19.783 44.7143 20.4776 44.7143 21.3114Z" fill="#E3DFDC"/>
<path d="M33.8897 15.8604C37.5858 15.8604 39.1699 17.4949 39.1699 20.5204V26.8209H32.445V29.3536C32.445 30.1883 32.6151 31.013 33.5831 31.013C34.3751 31.013 34.6378 30.1535 34.6378 29.3536V27.1628H39.1699V30.4318C39.1699 33.7356 37.0138 35.1614 33.6697 35.1614H32.8337C29.7096 35.1614 27.6416 33.666 27.6416 30.4666V20.3466C27.6416 17.8078 29.1816 15.8604 33.0097 15.8604H33.8897ZM32.445 21.5808V22.8505H34.6916V21.5808C34.6916 20.7462 34.6831 19.5721 33.5831 19.5721C32.3951 19.5721 32.445 20.7462 32.445 21.5808Z" fill="#E3DFDC"/>
<path d="M21.7491 15.8535C25.4452 15.8535 27.0292 17.488 27.0292 20.5136V26.8141H20.3044V29.3468C20.3044 30.1815 20.4744 31.0062 21.4425 31.0062C22.2345 31.0062 22.4971 30.1467 22.4971 29.3468V27.156H27.0292V30.425C27.0292 33.7288 24.8732 35.1546 21.5291 35.1546H20.6931C17.569 35.1546 15.501 33.6592 15.501 30.4597V20.3397C15.501 17.801 17.041 15.8535 20.8691 15.8535H21.7491ZM20.3044 21.574V22.8436H22.5509V21.574C22.5509 20.7393 22.5425 19.5653 21.4425 19.5653C20.2544 19.5653 20.3044 20.7393 20.3044 21.574Z" fill="#E3DFDC"/>
<path d="M10.0005 11.6172H15.0659V34.8053H10.0878V32.9707C9.73335 33.7366 8.72964 34.9794 6.64708 34.9794H6.60277C4.4759 34.9794 3.01367 33.3778 3.01367 31.0102V19.59C3.01367 17.8143 4.15738 15.7656 6.59442 15.7656C8.72129 15.7656 9.46877 17.0691 10.0005 17.7307V11.6172ZM10.0005 28.9969V21.8354C10.0005 20.8605 9.92793 19.9577 8.9088 19.9577C8.11122 19.9577 7.75482 20.6162 7.75482 21.6607V29.1279C7.75482 30.1028 8.0226 30.8746 8.9088 30.8746C9.88362 30.8746 10.0005 30.1111 10.0005 28.9969Z" fill="#E3DFDC"/>
<path d="M97.5605 15.873C99.9449 15.9109 101.858 17.8546 101.858 20.2393V34.8486H97.3604V33.1895C96.7927 34.6305 93.3424 36.0281 91.334 33.8447C90.1111 32.7965 89.3689 27.7744 91.6396 25.3291C92.7314 24.2811 94.8283 23.3647 97.1426 22.666V20.4824C97.1426 20.0001 96.7509 19.6094 96.2686 19.6094H96.1377C95.6072 19.6094 95.177 20.0389 95.1768 20.5693V21.8359H90.9854V20.2373C90.9854 17.8534 92.8968 15.9101 95.2803 15.8711L96.3564 15.8535L97.5605 15.873ZM97.1055 25.792C97.0821 25.8037 97.0569 25.8124 97.0312 25.8174C95.8914 26.0404 95.076 27.0487 95.0957 28.21L95.1279 30.1338C95.1358 30.5882 95.5166 30.9475 95.9707 30.9287L96.373 30.9121C96.8383 30.8929 97.2073 30.5115 97.2109 30.0459L97.2451 25.7227L97.1055 25.792Z" fill="#E3DFDC"/>
</svg>
