<svg width="1010" height="294" viewBox="0 0 1010 294" fill="none" xmlns="http://www.w3.org/2000/svg">
<path d="M1010 0.835938V249.555H962.109V0.835938H1010Z" fill="white"/>
<path d="M787.748 184.435V174.351H835.223V201.672C835.223 211.323 825.56 247.875 781.73 249.555H771.824C730.61 249.555 717.586 208.841 717.586 186.535V83.6025C717.586 61.0314 727.242 23.5238 780.541 23.5234C828.921 23.5231 834.803 68.8978 834.803 68.8978L835.223 107.97H787.748V76.0401C787.748 76.0401 788.34 64.6965 777.245 64.6965C766.15 64.6965 766.321 76.0401 766.321 76.0401L765.061 188.216C765.061 198.03 762.54 207.515 775.984 208.382C788.562 209.194 787.748 193.357 787.748 184.435Z" fill="white"/>
<path d="M594.906 196.196V114.27C594.906 84.222 619.694 66.375 656.246 66.375C692.797 66.375 712.964 92.0031 712.964 114.27L710.863 196.196C710.863 216.783 702.04 249.133 656.246 249.973C610.451 250.814 594.906 220.505 594.906 196.196ZM640.609 126.454V182.752C640.609 205.019 644.902 211.741 653.305 211.741C661.707 211.741 665.489 206.279 665.489 182.752V126.454C665.489 116.791 666.749 102.506 653.305 102.506C641.121 102.506 640.609 115.988 640.609 126.454Z" fill="white"/>
<path d="M528.241 23.5234H536.718C574.258 23.5234 588.79 54.7473 588.79 80.6616V93.6857H542.394V76.4602C542.394 69.0982 539.453 64.2764 531.891 64.2764C528.95 63.8562 518.554 66.1534 518.554 76.4602C518.554 88.8284 521.783 91.5485 537.122 105.978L566.185 133.365C586.772 152.801 591.13 169.73 591.13 189.476C591.13 220.146 577.685 246.194 534.832 249.975C498.502 249.975 478.534 236.951 473.492 199.917V176.872L517.606 177.292V184.855C517.606 194.867 520.135 209.222 530.63 209.222C531.471 209.222 544.791 209.93 544.791 196.384L544.371 190.316C544.371 174.709 516.09 155.088 499.54 139.48C480.165 121.222 473.492 101.613 473.492 79.8213C473.492 50.6677 492.316 23.5234 528.241 23.5234Z" fill="white"/>
<path d="M354.594 69.899H401.229V81.0801C404.59 75.6184 411.057 65.5352 433.579 65.5352C456.1 65.5352 469.29 85.1345 469.29 104.187V216.363C469.29 239.761 452.181 251.069 433.83 251.069H432.996C416.731 251.069 409.156 241.362 401.649 234.009V293.668H354.594V69.899ZM401.229 118.892V193.676C401.229 203.035 405.059 209.221 411.732 209.221C420.073 209.221 422.569 199.978 422.569 193.676V117.632C422.569 109.275 420.073 104.187 411.732 104.187C403.808 104.187 401.229 110.87 401.229 118.892Z" fill="white"/>
<path d="M297.067 66.4453C332.628 66.4453 347.868 82.1712 347.868 111.281V171.899H283.168V196.267C283.168 204.297 284.804 212.232 294.117 212.232C301.737 212.232 304.264 203.962 304.264 196.267V175.188H347.868V206.64C347.868 238.426 327.125 252.144 294.951 252.144H286.907C256.85 252.144 236.953 237.757 236.953 206.974V109.608C236.953 85.1825 251.77 66.4453 288.601 66.4453H297.067ZM283.168 121.483V133.698H304.782V121.483C304.782 113.453 304.701 102.157 294.117 102.157C282.687 102.157 283.168 113.453 283.168 121.483Z" fill="white"/>
<path d="M180.271 66.375C215.831 66.375 231.071 82.1009 231.071 111.21V171.828H166.371V196.196C166.371 204.226 168.007 212.161 177.32 212.161C184.94 212.161 187.467 203.892 187.467 196.196V175.118H231.071V206.569C231.071 238.356 210.328 252.074 178.154 252.074H170.11C140.053 252.074 120.156 237.686 120.156 206.904V109.537C120.156 85.1122 134.973 66.375 171.804 66.375H180.271ZM166.371 121.412V133.628H187.985V121.412C187.985 113.382 187.904 102.086 177.32 102.086C165.89 102.086 166.371 113.382 166.371 121.412Z" fill="white"/>
<path d="M67.2213 25.625H115.957V248.721H68.0616V231.07C64.6511 238.44 54.9942 250.396 34.9576 250.396H34.5313C14.0683 250.396 0 234.987 0 212.208V102.333C0 85.2486 11.0038 65.5377 34.4509 65.5377C54.9139 65.5377 62.1056 78.079 67.2213 84.4437V25.625ZM67.2213 192.838V123.936C67.2213 114.557 66.5232 105.87 56.718 105.87C49.0444 105.87 45.6154 112.206 45.6154 122.256V194.098C45.6154 203.478 48.1918 210.904 56.718 210.904C66.0969 210.904 67.2213 203.558 67.2213 192.838Z" fill="white"/>
<path d="M909.676 66.5586C932.616 66.9227 951.022 85.6233 951.022 108.566V249.133H907.745V233.168C902.283 247.032 869.093 260.476 849.77 239.47C838.003 229.386 830.862 181.071 852.71 157.544C863.214 147.461 883.381 138.638 905.648 131.916V110.909C905.648 106.269 901.887 102.506 897.246 102.506H895.984C890.88 102.506 886.741 106.644 886.741 111.749V123.934H846.409V108.551C846.409 85.6138 864.806 66.9159 887.74 66.543L898.086 66.375L909.676 66.5586ZM905.306 161.995C905.081 162.107 904.842 162.189 904.596 162.237C893.629 164.383 885.779 174.084 885.969 185.257L886.283 203.765C886.358 208.138 890.019 211.591 894.389 211.41L898.266 211.25C902.742 211.065 906.286 207.401 906.321 202.921L906.647 161.324L905.306 161.995Z" fill="white"/>
</svg>
