<svg width="1288" height="374" viewBox="0 0 1288 374" fill="none" xmlns="http://www.w3.org/2000/svg">
<path d="M1287.42 0V316.943H1226.39V0H1287.42Z" fill="black"/>
<path d="M1004.22 233.958V221.109H1064.72V255.924C1064.72 268.222 1052.4 314.8 996.552 316.941H983.928C931.409 316.941 914.812 265.059 914.812 236.635V105.467C914.812 76.7047 927.118 28.9087 995.037 28.9082C1056.69 28.9077 1064.18 86.729 1064.18 86.729L1064.72 136.519H1004.22V95.8304C1004.22 95.8304 1004.97 81.3752 990.836 81.3752C976.698 81.3752 976.916 95.8304 976.916 95.8304L975.31 238.776C975.31 251.283 972.098 263.369 989.23 264.474C1005.26 265.508 1004.22 245.327 1004.22 233.958Z" fill="black"/>
<path d="M758.477 248.947V144.549C758.477 106.258 790.064 83.5156 836.642 83.5156C883.22 83.5156 908.918 116.174 908.918 144.549L906.241 248.947C906.241 275.181 894.998 316.405 836.642 317.476C778.286 318.546 758.477 279.924 758.477 248.947ZM816.716 160.075V231.815C816.716 260.19 822.186 268.756 832.894 268.756C843.602 268.756 848.42 261.796 848.42 231.815V160.075C848.42 147.761 850.026 129.558 832.894 129.558C817.368 129.558 816.716 146.737 816.716 160.075Z" fill="black"/>
<path d="M673.517 28.9082H684.319C732.157 28.9082 750.674 68.6968 750.674 101.72V118.316H691.552V96.3658C691.552 86.9843 687.804 80.8398 678.167 80.8398C674.42 80.3044 661.172 83.2318 661.172 96.3658C661.172 112.127 665.287 115.593 684.833 133.98L721.869 168.879C748.102 193.646 753.656 215.22 753.656 240.382C753.656 279.465 736.524 312.658 681.915 317.477C635.621 317.477 610.175 300.88 603.75 253.688V224.321L659.965 224.856V234.493C659.965 247.252 663.187 265.545 676.561 265.545C677.632 265.545 694.607 266.447 694.607 249.185L694.071 241.453C694.071 221.564 658.033 196.561 636.943 176.672C612.253 153.406 603.75 128.418 603.75 100.649C603.75 63.4982 627.737 28.9082 673.517 28.9082Z" fill="black"/>
<path d="M452.25 88.0042H511.677V102.252C515.96 95.2924 524.202 82.4434 552.901 82.4434C581.6 82.4434 598.408 107.419 598.408 131.698V274.644C598.408 304.461 576.606 318.87 553.221 318.87H552.158C531.431 318.87 521.779 306.501 512.212 297.13V373.153H452.25V88.0042ZM511.677 150.436V245.733C511.677 257.66 516.558 265.542 525.061 265.542C535.691 265.542 538.872 253.764 538.872 245.733V148.83C538.872 138.181 535.691 131.698 525.061 131.698C514.963 131.698 511.677 140.213 511.677 150.436Z" fill="black"/>
<path d="M378.94 83.6055C424.255 83.6055 443.676 103.645 443.676 140.739V217.985H361.227V249.037C361.227 259.27 363.312 269.381 375.18 269.381C384.891 269.381 388.111 258.844 388.111 249.037V222.177H443.676V262.256C443.676 302.761 417.242 320.242 376.243 320.242H365.993C327.691 320.242 302.336 301.908 302.336 262.682V138.608C302.336 107.482 321.217 83.6055 368.151 83.6055H378.94ZM361.227 153.74V169.306H388.771V153.74C388.771 143.507 388.667 129.113 375.18 129.113C360.615 129.113 361.227 143.507 361.227 153.74Z" fill="black"/>
<path d="M230.104 83.5156C275.419 83.5156 294.84 103.555 294.84 140.65V217.895H212.392V248.947C212.392 259.18 214.476 269.292 226.344 269.292C236.055 269.292 239.275 258.754 239.275 248.947V222.087H294.84V262.166C294.84 302.671 268.406 320.153 227.407 320.153H217.157C178.855 320.153 153.5 301.818 153.5 262.592V138.518C153.5 107.392 172.381 83.5156 219.315 83.5156H230.104ZM212.392 153.65V169.217H239.935V153.65C239.935 143.417 239.831 129.023 226.344 129.023C211.779 129.023 212.392 143.417 212.392 153.65Z" fill="black"/>
<path d="M86.0432 31.584H148.147V315.877H87.114V293.384C82.768 302.775 70.4622 318.011 44.9294 318.011H44.3861C18.3101 318.011 0.382812 298.375 0.382812 269.347V129.333C0.382812 107.563 14.405 82.4448 44.2838 82.4448C70.3598 82.4448 79.5242 98.4263 86.0432 106.537V31.584ZM86.0432 244.664V156.862C86.0432 144.91 85.1535 133.841 72.6588 133.841C62.8803 133.841 58.5106 141.915 58.5106 154.721V246.27C58.5106 258.223 61.7938 267.685 72.6588 267.685C84.6103 267.685 86.0432 258.324 86.0432 244.664Z" fill="black"/>
<path d="M1159.59 83.7559C1188.82 84.2201 1212.28 108.05 1212.28 137.287V316.411H1157.13V296.066C1150.17 313.734 1107.87 330.866 1083.25 304.097C1068.26 291.247 1059.16 229.679 1087 199.698C1100.38 186.849 1126.08 175.606 1154.46 167.04V140.271C1154.46 134.358 1149.66 129.563 1143.75 129.563H1142.14C1135.64 129.564 1130.36 134.837 1130.36 141.342V156.868H1078.97V137.267C1078.97 108.038 1102.41 84.2116 1131.64 83.7363L1144.82 83.5215L1159.59 83.7559ZM1154.02 205.371C1153.73 205.514 1153.43 205.617 1153.11 205.679C1139.14 208.413 1129.14 220.775 1129.38 235.013L1129.78 258.597C1129.87 264.169 1134.54 268.571 1140.11 268.341L1145.05 268.137C1150.75 267.901 1155.27 263.231 1155.31 257.522L1155.73 204.516L1154.02 205.371Z" fill="black"/>
</svg>
