<svg width="54" height="29" viewBox="0 0 54 29" fill="none" xmlns="http://www.w3.org/2000/svg">
<path d="M13.5812 15.5879V15.5362C15.4767 15.0085 16.4784 13.8768 16.4784 11.085C16.4784 9.66258 16.1359 8.39823 15.2931 7.529C14.5819 6.81855 13.739 6.5293 12.1064 6.5293H0V10.6379H1.44018V20.8558H0V24.9642H12.08C13.5812 24.9642 14.5558 24.6749 15.3192 23.9111C16.1621 23.0686 16.6623 21.8555 16.6623 20.0392C16.6623 17.0369 15.6087 16.0884 13.5812 15.5879ZM6.83877 10.506H9.7628C10.2628 10.506 10.4469 10.5845 10.5786 10.7159C10.7635 10.9003 10.8689 11.2427 10.8689 12.1386C10.8689 13.0595 10.7369 13.4288 10.5523 13.6392C10.3942 13.798 10.2104 13.8241 9.7628 13.8241H6.83877V10.506ZM10.7103 20.7504C10.5262 20.935 10.3164 20.9872 9.84156 20.9872H6.83877V17.3008H9.84156C10.3164 17.3008 10.5262 17.353 10.7103 17.5366C10.9213 17.7484 11.0262 17.9844 11.0262 19.1705C11.0262 20.3814 10.8952 20.5656 10.7103 20.7504Z" fill="black"/>
<path d="M45.5164 6.5293V10.6379H46.8517V18.0376C46.8517 19.75 46.7742 20.2493 46.5366 20.487C46.3259 20.6975 45.8515 20.7504 44.9562 20.7504H44.0377C43.1424 20.7504 42.6685 20.6975 42.4582 20.487C42.2207 20.2492 42.1421 19.75 42.1421 18.0376V10.6379H43.4775V6.5293H35.7031V10.6379H36.6907V17.5637C36.6907 21.646 37.1382 22.8828 38.1396 23.8835C38.9815 24.7264 40.0354 24.9642 42.4048 24.9642H46.4849C48.8538 24.9642 49.9074 24.7264 50.7498 23.8835C51.7513 22.8828 52.1988 21.646 52.1988 17.5637V10.6379H53.5868V6.5293H45.5164Z" fill="black"/>
<path d="M35.3627 5.37523H37.2128V0.818359H27.5998V5.30526H29.2151L25.9952 11.7945L22.7748 5.30526H24.3906V0.818359H14.7773V5.37523H16.6277L22.7726 16.7138V23.5409H20.7498V28.1826H31.2403V23.5409H29.2175V16.7138L35.3627 5.37523Z" fill="black"/>
</svg>
