<svg width="285" height="26" viewBox="0 0 285 26" fill="none" xmlns="http://www.w3.org/2000/svg">
<path d="M14.5276 0.664639H14.0617C14.0379 1.2142 13.7497 1.45201 13.2089 1.45201C12.123 1.45201 10.3667 0.116375 8.50425 0.116375C3.20513 0.116375 0 5.40901 0 10.0715C0 14.7644 3.05129 19.4014 8.16682 19.4014C11.2702 19.4014 12.4339 17.9096 13.2598 17.9096C13.8034 17.9096 14.114 18.5925 14.217 18.9832H14.6055V12.561H14.217L14.0617 13.453C13.6989 15.5776 11.7617 18.9303 8.4283 18.9303C5.48003 18.9303 4.34486 16.1258 4.34486 9.75654C4.34486 3.07695 5.89369 0.585857 8.5044 0.585857C11.4511 0.585857 13.6481 4.17477 14.0617 6.85054H14.5278L14.5276 0.664639Z" fill="black"/>
<path d="M28.6223 16.7593H28.1638C28.1638 17.4333 27.8831 18.2086 27.2707 18.2086C26.8121 18.2086 26.6866 17.7179 26.6866 16.917V10.9686C26.6866 8.02178 23.9565 7.29642 21.3308 7.29642C18.7814 7.29642 16.9189 8.56536 16.9189 10.0116C16.9189 10.9187 17.4283 11.6925 18.5754 11.6925C19.5446 11.6925 20.1315 11.0474 20.1315 10.1402C20.1315 8.90164 18.8591 8.97736 18.8306 8.53806C18.8083 7.96881 20.2853 7.76427 21.1531 7.76427C23.0634 7.76427 23.3202 8.71679 23.3202 10.2705V12.4405L20.82 12.648C18.5021 12.8297 15.9766 13.4507 15.9766 16.1386C15.9766 18.3889 17.9644 19.2959 19.9285 19.2959C20.9216 19.2959 22.6811 18.9052 23.3455 17.6665C23.8041 18.7507 24.7482 19.2959 25.8936 19.2959C27.5515 19.2959 28.6223 18.2857 28.6223 16.7593ZM23.3202 15.9083C23.2694 17.279 22.5018 18.5176 21.3055 18.5176C19.5715 18.5176 19.4966 16.9169 19.4966 15.5722C19.4966 14.1986 19.6476 13.2947 21.3055 13.1144L23.3202 12.9069V15.9083Z" fill="black"/>
<path d="M28.7656 18.9834H36.3918V18.517H34.0453V11.9191C34.0453 9.92928 34.6577 8.53296 36.2646 7.80759H36.3663C35.9332 8.27255 35.754 8.68455 35.754 9.33113C35.754 10.3411 36.4933 11.0134 37.488 11.0134C38.7126 11.0134 39.4267 10.1125 39.4267 9.1266C39.4267 7.88347 38.6096 7.13389 37.4117 7.13389C35.7793 7.13389 34.5292 8.27255 34.0453 9.56588H33.9946V6.92787C33.4585 7.59867 31.572 7.59867 30.5265 7.59867H28.7656V8.06202H30.5267V18.517H28.7656V18.9834Z" fill="black"/>
<path d="M39.8281 18.9834H46.6088V18.517H45.1048V11.4285C45.1048 10.1125 46.3802 8.22106 47.8067 8.22106C48.546 8.22106 49.3137 8.53311 49.3137 10.3411V18.517H47.8589V18.9834H54.5889V18.517H52.8295V11.2998C52.8295 8.50584 51.657 7.28983 49.2345 7.28983C47.5288 7.28983 45.8441 8.19393 45.1556 9.69294H45.1048V6.92787C44.5687 7.59867 42.6853 7.59867 41.6384 7.59867H39.8281V8.06202H41.5876V18.517H39.8281V18.9834Z" fill="black"/>
<path d="M58.303 12.7284H65.342C65.3167 9.93586 62.7658 7.24796 60.0878 7.29639C57.0813 7.29639 54.4766 9.93601 54.4766 13.4248C54.4766 16.7867 56.8991 19.2959 60.1655 19.2959C63.3018 19.2959 64.8581 17.3289 65.4183 14.768H64.9597C64.3997 17.1744 62.9196 18.6735 60.9302 18.6735C58.5584 18.6735 58.3028 16.6565 58.3028 14.8998L58.303 12.7284ZM58.303 12.2603V10.0388C58.303 8.30493 59.0437 7.76442 59.9101 7.76442C61.1317 7.76442 61.5171 8.61523 61.5171 10.0388V12.2603H58.303Z" fill="black"/>
<path d="M78.0052 8.46191C78.0052 7.55475 77.0374 7.09142 76.2712 7.09142C75.4318 7.09142 74.794 7.66082 74.3071 8.22862C73.5664 7.68649 72.5493 7.29581 71.1215 7.29581C68.9798 7.29581 66.6826 8.71782 66.6826 11.0726C66.6826 12.493 67.4488 13.6046 68.8004 14.2255V14.2754C67.8058 14.404 66.2496 15.1036 66.2496 17.2495C66.2496 18.5396 66.8365 19.5239 67.9074 19.8358V19.8859C66.8873 20.1674 65.7148 21.2016 65.7148 22.4435C65.7148 24.3561 67.9342 25.8311 70.7645 25.8311C74.3073 25.8311 76.6296 23.4005 76.6296 20.2477C76.6296 17.7385 75.405 16.6027 72.9063 16.6542H68.672C68.0343 16.6542 67.1682 16.6284 67.1682 15.9319C67.1682 15.2837 68.2658 14.5871 69.2336 14.5871C69.5144 14.5871 69.7936 14.6643 70.0759 14.74C70.3807 14.8444 70.7122 14.8976 71.1215 14.8976C73.314 14.8976 75.6588 13.6286 75.6588 11.1739C75.6588 10.3471 75.278 9.18551 74.5641 8.56476C75.0227 8.0998 75.2527 7.52893 76.2472 7.40172V7.45323C75.7111 7.7364 75.5588 8.07251 75.5588 8.59188C75.5588 9.18551 75.9665 9.78076 76.7296 9.78076C77.5481 9.78076 78.0052 9.15854 78.0052 8.46191ZM68.3167 19.9115H72.3194C74.8688 19.9115 75.711 20.1432 75.711 21.7212C75.711 23.608 73.417 25.3647 70.8407 25.3647C68.5451 25.3647 67.2979 23.7883 67.2442 22.5496C67.2442 21.4107 67.6266 20.6611 68.3167 19.9115ZM72.7539 11.0725C72.727 14.251 72.0639 14.4312 71.1467 14.4312C70.1267 14.4312 69.5906 14.095 69.5906 10.9922C69.5906 8.90088 69.8205 7.76367 71.1467 7.76367C72.3446 7.76367 72.727 8.0998 72.7539 11.0725Z" fill="black"/>
<path d="M78.4023 18.9834H85.4458V18.517H83.6849V6.92787C83.1487 7.59867 81.2594 7.59867 80.2153 7.59867H78.4023V8.06202H80.1618V18.517H78.4023V18.9834Z" fill="black"/>
<path d="M80.1016 3.5989C80.1016 4.62407 80.9096 5.44629 81.9222 5.44629C82.9348 5.44629 83.743 4.62407 83.743 3.5989C83.743 2.57373 82.9348 1.7544 81.9222 1.7544C81.6828 1.75314 81.4457 1.79998 81.2244 1.89221C81.003 1.98444 80.8019 2.12022 80.6326 2.29173C80.4633 2.46324 80.3292 2.66706 80.238 2.89143C80.1469 3.11579 80.1005 3.35626 80.1016 3.5989Z" fill="black"/>
<path d="M89.2733 12.7284H96.3095C96.287 9.93586 93.7346 7.24796 91.0565 7.29639C88.0487 7.29639 85.4453 9.93601 85.4453 13.4248C85.4453 16.7867 87.8724 19.2959 91.1328 19.2959C94.2707 19.2959 95.8284 17.3289 96.387 14.768H95.9284C95.3684 17.1744 93.8898 18.6735 91.899 18.6735C89.5287 18.6735 89.2733 16.6565 89.2733 14.8998V12.7284ZM89.2733 12.2603V10.0388C89.2733 8.30493 90.0126 7.76442 90.8804 7.76442C92.1036 7.76442 92.4859 8.61523 92.4859 10.0388V12.2603H89.2733Z" fill="black"/>
<path d="M100.773 18.9834H105.719V18.5184H105.362C103.985 18.5184 103.45 18.1566 103.45 16.0622V1.40811H103.502L109.593 18.9834H110.283L116.221 1.71855H116.272V18.5184H114.078V18.9834H122.16V18.5184H120.248V1.25215H122.16V0.787172H116.016L111.708 13.2728H111.657L107.426 0.787172H100.9V1.25215H102.836V16.2971C102.836 17.4085 102.582 18.5186 100.875 18.5186H100.773V18.9834Z" fill="black"/>
<path d="M125.729 12.7284H132.766C132.742 9.93586 130.192 7.24796 127.514 7.29639C124.505 7.29639 121.902 9.93601 121.902 13.4248C121.902 16.7867 124.326 19.2959 127.593 19.2959C130.726 19.2959 132.285 17.3289 132.844 14.768H132.386C131.827 17.1744 130.347 18.6735 128.356 18.6735C125.983 18.6735 125.729 16.6565 125.729 14.8998L125.729 12.7284ZM125.729 12.2603V10.0388C125.729 8.30493 126.468 7.76442 127.336 7.76442C128.561 7.76442 128.943 8.61523 128.943 10.0388V12.2603H125.729Z" fill="black"/>
<path d="M132.836 18.9834H139.88V18.5184H138.119V-0.000165939C137.659 0.775089 136.255 0.77508 134.443 0.77508H132.836V1.24166H134.598V18.5184H132.836V18.9834Z" fill="black"/>
<path d="M140.32 18.9834H147.364V18.5184H145.604V-0.000165939C145.143 0.775089 143.741 0.77508 141.929 0.77508H140.32V1.24166H142.08V18.5184H140.32V18.9834Z" fill="black"/>
<path d="M159.216 13.2947C159.216 9.75421 156.514 7.29639 153.148 7.29639C149.783 7.29639 147.078 9.75421 147.078 13.2947C147.078 16.8382 149.783 19.2959 153.148 19.2959C156.514 19.2959 159.216 16.8382 159.216 13.2947ZM155.237 16.087C155.237 18.0284 154.449 18.828 153.148 18.828C151.848 18.828 151.057 18.0284 151.057 16.087V10.5022C151.057 8.56535 151.848 7.76425 153.148 7.76425C154.449 7.76425 155.237 8.56533 155.237 10.5023V16.087Z" fill="black"/>
<path d="M159.23 18.9834H166.013V18.517H164.51V11.4285C164.51 10.1125 165.786 8.22106 167.214 8.22106C167.951 8.22106 168.718 8.53311 168.718 10.3411V18.517H167.261V18.9834H173.996V18.517H172.233V11.2998C172.233 8.50584 171.062 7.28983 168.64 7.28983C166.933 7.28983 165.249 8.19393 164.56 9.69294H164.51V6.92787C163.976 7.59867 162.088 7.59867 161.042 7.59867H159.231V8.06202H160.992V18.517H159.23V18.9834Z" fill="black"/>
<path d="M177.547 1.25325H179.536V12.9636C179.536 16.969 182.261 19.3994 186.419 19.3994C191.108 19.3994 193.147 16.8902 193.147 13.0892V3.42482C193.147 1.92565 193.555 1.25339 194.473 1.25339H195.136V0.788443H190.09V1.25339H190.829C192.13 1.25339 192.538 1.92565 192.538 3.42482V13.2482C192.538 16.76 190.445 18.4666 187.972 18.4666C184.25 18.4666 183.512 15.9347 183.512 12.6273V1.25325H185.576V0.788271H177.547V1.25325Z" fill="black"/>
<path d="M194.141 18.9834H200.921V18.517H199.419V11.4285C199.419 10.1125 200.69 8.22106 202.118 8.22106C202.86 8.22106 203.623 8.53311 203.623 10.3411V18.517H202.172V18.9834H208.901V18.517H207.145V11.2998C207.145 8.50584 205.97 7.28983 203.549 7.28983C201.841 7.28983 200.157 8.19393 199.47 9.69294H199.419V6.92787C198.881 7.59867 196.996 7.59867 195.948 7.59867H194.141V8.06202H195.897V18.517H194.141V18.9834Z" fill="black"/>
<path d="M209.277 18.9834H216.321V18.517H214.561V6.92787C214.024 7.59867 212.137 7.59867 211.089 7.59867H209.277V8.06202H211.041V18.517H209.277V18.9834Z" fill="black"/>
<path d="M210.977 3.5989C210.977 4.62407 211.788 5.44629 212.8 5.44629C213.81 5.44629 214.618 4.62407 214.618 3.5989C214.618 2.57373 213.81 1.7544 212.8 1.7544C211.787 1.7544 210.977 2.57373 210.977 3.5989Z" fill="black"/>
<path d="M221.487 19.2959H222.175L225.948 10.2449C226.586 8.79719 227.12 8.09893 227.707 8.07326H227.939V7.60669H223.96V8.07326H224.447C225.185 8.07326 225.618 8.35644 225.618 9.02886C225.618 9.44538 225.491 10.0116 225.185 10.7353L223.451 14.8727L220.467 8.07326H221.997V7.60669H215.598V8.07326H216.694L221.487 19.2959Z" fill="black"/>
<path d="M230.735 12.7284H237.774C237.75 9.93586 235.199 7.24796 232.523 7.29639C229.512 7.29639 226.91 9.93601 226.91 13.4248C226.91 16.7867 229.334 19.2959 232.601 19.2959C235.736 19.2959 237.29 17.3289 237.852 14.768H237.396C236.832 17.1744 235.355 18.6735 233.365 18.6735C230.992 18.6735 230.912 16.6565 230.912 14.8998L230.735 12.7284ZM230.735 12.2603V10.0388C230.735 8.30493 231.476 7.76442 232.344 7.76442C233.567 7.76442 233.948 8.61523 233.948 10.0388V12.2603H230.735Z" fill="black"/>
<path d="M237.832 18.9834H245.457V18.517H243.112V11.9191C243.112 9.92928 243.724 8.53296 245.331 7.80759H245.433C245 8.27255 244.821 8.68455 244.821 9.33113C244.821 10.3411 245.558 11.0134 246.555 11.0134C247.779 11.0134 248.493 10.1125 248.493 9.1266C248.493 7.88347 247.678 7.13389 246.477 7.13389C244.846 7.13389 243.596 8.27255 243.112 9.56588H243.061V6.92787C242.525 7.59867 240.639 7.59867 239.593 7.59867H237.832V8.06202H239.593V18.517H237.832L237.832 18.9834Z" fill="black"/>
<path d="M249.051 19.2959H249.512C249.64 18.8794 250.048 18.6735 250.559 18.6735C251.22 18.6735 252.01 19.2959 253.439 19.2959C255.864 19.2959 257.52 17.1744 257.52 15.0543C257.52 11.9 255.38 11.6667 252.648 11.2791C251.22 11.0716 250.328 10.8383 250.328 9.69965C250.328 8.48511 251.374 7.76427 252.751 7.76427C254.663 7.76427 255.684 9.28783 256.324 10.9686H256.73L256.576 7.29639H256.194C256.194 7.60685 255.891 7.86582 255.404 7.86582C254.587 7.86582 253.924 7.29639 252.751 7.29639C250.202 7.29639 248.953 9.49673 248.953 11.1504C248.953 14.4865 251.45 14.768 253.387 15.0013C255.226 15.2361 255.991 15.4146 255.991 16.605C255.991 17.9769 254.871 18.828 253.491 18.828C251.553 18.828 249.972 16.8382 249.512 14.9513H249.051V19.2959Z" fill="black"/>
<path d="M257.969 18.9834H265.009V18.517H263.251V6.92787C262.715 7.59867 260.827 7.59867 259.782 7.59867H257.969V8.06202H259.731V18.517H257.969V18.9834Z" fill="black"/>
<path d="M259.668 3.5989C259.668 4.62407 260.473 5.44629 261.486 5.44629C262.5 5.44629 263.308 4.62407 263.308 3.5989C263.308 2.57373 262.5 1.7544 261.486 1.7544C260.473 1.7544 259.668 2.57373 259.668 3.5989Z" fill="black"/>
<path d="M266.017 8.07276V16.3456C266.017 18.8019 268.108 19.2939 268.822 19.2939C270.378 19.2939 271.424 18.6474 272.215 17.3027L271.885 17.1209C271.578 17.5859 271.167 18.2082 270.531 18.2082C269.869 18.2082 269.538 17.716 269.538 16.865V8.07276H271.885V7.60941H269.538V2.05041H269.077C269.077 4.79125 267.24 7.60941 264.664 7.60941V8.07276H266.017Z" fill="black"/>
<path d="M271.797 8.07147H272.866L277.761 19.5728L277.61 20.6055C277.507 21.3567 276.996 24.305 276.155 24.5609V24.4852C276.257 24.1219 276.284 23.8402 276.284 23.6069C276.284 22.7271 275.673 22.0548 274.599 22.0548C273.479 22.0548 272.919 22.8317 272.919 23.8129C272.919 24.873 273.888 25.624 275.007 25.624C277.023 25.624 277.532 23.3722 277.761 22.2879L278.451 19.1351L279.777 15.7748L282.3 10.0083C282.863 8.69385 283.37 8.07147 283.932 8.07147H284.137V7.60507H280.161V8.07164H280.696C281.51 8.07164 281.868 8.53788 281.868 8.97701C281.868 9.4904 281.535 10.3461 281.129 11.3273L279.65 14.8694L276.666 8.07147H278.349V7.60507H271.797V8.07147Z" fill="black"/>
</svg>
