<svg width="288" height="102" viewBox="0 0 288 102" fill="none" xmlns="http://www.w3.org/2000/svg">
<path d="M112.255 12.1343L110.82 12.2187L106.399 19.7329L106.61 23.322L109.328 23.1622L109.5 26.0847L100.783 26.5972L100.612 23.6747L103.175 23.524L102.963 19.9093L97.5402 12.9995L96.0533 13.0869L95.8814 10.1644L102.778 9.75893L102.949 12.6814L101.565 12.7628L104.607 16.8028L104.76 16.7938L107.282 12.4267L105.692 12.5202L105.521 9.59766L112.083 9.2118L112.255 12.1343ZM129.677 16.5122C129.816 18.8707 129.174 20.9406 127.753 22.7221C126.348 24.5025 124.296 25.472 121.595 25.6308C118.878 25.7906 116.743 25.0672 115.191 23.4606C113.639 21.854 112.794 19.8886 112.658 17.5643C112.515 15.1374 113.164 13.0498 114.605 11.3016C116.045 9.55337 118.073 8.60238 120.688 8.44864C123.354 8.29189 125.48 9.01579 127.067 10.6203C128.669 12.2068 129.539 14.1707 129.677 16.5122ZM125.966 16.8333C125.861 15.0558 125.37 13.6956 124.491 12.7526C123.612 11.8096 122.396 11.3838 120.84 11.4752C119.182 11.5727 118 12.1738 117.293 13.2787C116.586 14.3664 116.278 15.6965 116.37 17.2688C116.46 18.7899 116.913 20.0837 117.73 21.1504C118.548 22.2171 119.837 22.6987 121.597 22.5952C123.221 22.4997 124.379 21.9257 125.071 20.8732C125.763 19.8035 126.061 18.4569 125.966 16.8333ZM147.488 10.0628L146.001 10.1502L146.404 16.995C146.473 18.1743 146.318 19.3239 145.938 20.4438C145.558 21.5637 144.867 22.5047 143.866 23.2667C142.864 24.0287 141.475 24.462 139.698 24.5665C137.168 24.7152 135.341 24.128 134.218 22.805C133.093 21.4648 132.477 19.8975 132.372 18.103L131.953 10.9762L130.466 11.0636L130.294 8.1411L137.165 7.73715L137.336 10.6597L135.388 10.7742L135.801 17.7985C135.868 18.9436 136.198 19.876 136.789 20.5958C137.396 21.2976 138.366 21.6093 139.699 21.5309C141.015 21.4535 141.942 21.0217 142.478 20.2356C143.032 19.4484 143.273 18.431 143.199 17.1834L142.797 10.3386L140.849 10.4532L140.677 7.53066L147.316 7.14028L147.488 10.0628ZM165.03 22.8198L160.775 23.07L157.094 16.9067L154.838 17.0394L155.04 20.4746L156.834 20.3691L157.006 23.2916L149.982 23.7046L149.81 20.7821L151.604 20.6766L150.968 9.85817L149.174 9.96368L149.002 7.04117L156.539 6.59804C158.607 6.47645 160.222 6.81027 161.383 7.59949C162.543 8.37162 163.172 9.59512 163.271 11.27C163.337 12.398 163.102 13.3636 162.566 14.1669C162.029 14.953 161.294 15.5622 160.359 15.9945L162.859 20.0149L164.858 19.8973L165.03 22.8198ZM159.584 11.564C159.534 10.7265 159.253 10.1686 158.739 9.89006C158.224 9.59448 157.343 9.48336 156.096 9.55672L154.404 9.6562L154.678 14.322L156.319 14.2255C157.635 14.1481 158.519 13.8817 158.973 13.4263C159.426 12.9709 159.63 12.3501 159.584 11.564Z" fill="white"/>
<path d="M32.0817 60.1717L31.3432 41.5097L43.4808 41.0294L43.5929 43.8633L34.836 44.2099L35.0365 49.2763L43.1646 48.9546L43.2768 51.7886L35.1486 52.1102L35.3502 57.204L44.18 56.8546L44.2921 59.6885L32.0817 60.1717ZM46.9298 40.8929L51.0667 40.7292L57.1421 54.0326L57.3608 54.0239L62.366 40.2821L66.503 40.1184L67.2414 58.7803L63.9975 58.9087L63.4901 46.0877L63.317 46.0946L58.6646 59.065L56.2407 59.1609L50.5769 46.5713L50.4038 46.5782L50.9122 59.4265L47.6682 59.5549L46.9298 40.8929ZM70.9228 58.6346L70.1843 39.9727L77.3284 39.69C78.677 39.6366 79.8062 39.8049 80.716 40.1948C81.6317 40.5784 82.3257 41.1259 82.798 41.8373C83.2764 42.5485 83.5338 43.3658 83.5704 44.2892C83.6004 45.0485 83.4804 45.7043 83.2102 46.2565C82.9397 46.8026 82.5651 47.2525 82.0862 47.6061C81.6074 47.9597 81.0671 48.2214 80.4654 48.3912L80.4726 48.5735C81.1362 48.5837 81.7791 48.7621 82.4012 49.1086C83.0292 49.4488 83.5508 49.9454 83.9661 50.5982C84.3813 51.2511 84.6077 52.0513 84.6452 52.999C84.6834 53.9649 84.4839 54.8429 84.0467 55.6329C83.6092 56.4168 82.9284 57.0492 82.0044 57.5299C81.0803 58.0106 79.9045 58.2792 78.4769 58.3357L70.9228 58.6346ZM74.1917 55.6761L77.8275 55.5322C79.0546 55.4836 79.9292 55.2148 80.4514 54.7256C80.9794 54.2301 81.2287 53.6118 81.1994 52.8707C81.1775 52.3179 81.0211 51.8252 80.7302 51.3925C80.439 50.9538 80.0363 50.6168 79.522 50.3816C79.0074 50.1404 78.4009 50.0336 77.7023 50.0612L73.9753 50.2087L74.1917 55.6761ZM73.8791 47.7757L77.2233 47.6434C77.8064 47.6203 78.3277 47.4932 78.7871 47.2621C79.2462 47.0249 79.6016 46.7035 79.8532 46.2981C80.1107 45.8863 80.2287 45.4071 80.207 44.8603C80.1784 44.1374 79.8997 43.5522 79.3709 43.1046C78.8482 42.6568 78.0887 42.4526 77.0924 42.492L73.6753 42.6273L73.8791 47.7757ZM87.7874 57.9673L87.0489 39.3053L99.1864 38.825L99.2986 41.6589L90.5417 42.0055L90.7422 47.0719L98.8703 46.7502L98.9825 49.5842L90.8543 49.9058L91.0559 54.9996L99.8857 54.6502L99.9978 57.4841L87.7874 57.9673ZM109.698 57.1002L103.374 57.3505L102.635 38.6885L109.087 38.4332C110.94 38.3599 112.546 38.6705 113.906 39.3651C115.272 40.0533 116.341 41.0788 117.113 42.4416C117.885 43.8044 118.309 45.4547 118.386 47.3926C118.462 49.3366 118.167 51.0214 117.499 52.4473C116.838 53.8729 115.845 54.9861 114.519 55.7869C113.2 56.5874 111.593 57.0252 109.698 57.1002ZM106.639 54.2917L109.418 54.1817C110.718 54.1302 111.793 53.8504 112.643 53.3422C113.493 52.8279 114.118 52.0883 114.517 51.1233C114.917 50.1522 115.089 48.9529 115.032 47.5253C114.976 46.0977 114.71 44.9218 114.235 43.9975C113.761 43.0671 113.086 42.385 112.211 41.9511C111.341 41.5109 110.275 41.3158 109.011 41.3658L106.132 41.4798L106.639 54.2917ZM128.291 56.3644L121.968 56.6147L121.229 37.9527L127.681 37.6974C129.533 37.6241 131.14 37.9347 132.5 38.6293C133.866 39.3175 134.934 40.3431 135.706 41.7058C136.478 43.0686 136.902 44.7189 136.979 46.6568C137.056 48.6008 136.761 50.2857 136.093 51.7115C135.432 53.1371 134.438 54.2503 133.113 55.0511C131.794 55.8517 130.187 56.2894 128.291 56.3644ZM125.232 53.5559L128.012 53.4459C129.312 53.3945 130.387 53.1146 131.237 52.6064C132.086 52.0921 132.711 51.3525 133.111 50.3875C133.511 49.4164 133.682 48.2171 133.626 46.7895C133.569 45.3619 133.304 44.186 132.829 43.2617C132.354 42.3313 131.679 41.6492 130.804 41.2153C129.935 40.7751 128.869 40.5801 127.605 40.6301L124.725 40.744L125.232 53.5559ZM140.561 55.8789L139.823 37.2169L151.96 36.7366L152.072 39.5706L143.316 39.9171L143.516 44.9835L151.644 44.6619L151.756 47.4958L143.628 47.8174L143.83 52.9112L152.66 52.5618L152.772 55.3957L140.561 55.8789ZM162.472 55.0119L156.148 55.2621L155.409 36.6002L161.861 36.3449C163.714 36.2715 165.32 36.5822 166.68 37.2767C168.046 37.965 169.115 38.9905 169.886 40.3532C170.658 41.716 171.083 43.3664 171.159 45.3042C171.236 47.2482 170.941 48.9331 170.273 50.3589C169.612 51.7845 168.618 52.8977 167.293 53.6985C165.974 54.4991 164.367 54.9369 162.472 55.0119ZM159.413 52.2033L162.192 52.0933C163.492 52.0419 164.567 51.762 165.417 51.2538C166.267 50.7395 166.891 49.9999 167.291 49.0349C167.691 48.0638 167.863 46.8645 167.806 45.4369C167.75 44.0093 167.484 42.8334 167.009 41.9091C166.534 40.9787 165.859 40.2966 164.984 39.8627C164.115 39.4226 163.049 39.2275 161.785 39.2775L158.906 39.3914L159.413 52.2033ZM183.503 54.1796L179.894 54.3224L185.726 35.4005L189.899 35.2353L197.217 53.6369L193.608 53.7797L188.037 39.1422L187.891 39.1479L183.503 54.1796ZM183.332 46.8578L193.173 46.4683L193.28 49.1838L183.439 49.5732L183.332 46.8578ZM199.675 53.5397L198.936 34.8777L202.317 34.7439L202.943 50.572L211.163 50.2467L211.275 53.0806L199.675 53.5397ZM214.209 52.9645L213.47 34.3025L216.851 34.1688L217.477 49.9968L225.697 49.6716L225.809 52.5055L214.209 52.9645ZM224.849 33.8523L228.668 33.7012L233.559 41.7762L233.742 41.769L237.98 33.3326L241.798 33.1816L235.473 45.1504L235.748 52.1122L232.377 52.2456L232.101 45.2838L224.849 33.8523Z" fill="white"/>
<path d="M123.731 80.8062L121.603 80.9007L120.66 78.7381L116.788 78.9101L116.086 81.1457L114.012 81.2378L117.354 71.3847L119.422 71.2928L123.731 80.8062ZM119.96 77.1341L118.465 73.5993L117.317 77.2515L119.96 77.1341ZM130.383 75.559L128.567 75.9707C128.489 75.6078 128.336 75.3388 128.108 75.1636C127.884 74.9882 127.598 74.9082 127.25 74.9237C126.787 74.9442 126.424 75.1214 126.161 75.4553C125.902 75.7845 125.789 76.3235 125.822 77.0723C125.859 77.9048 126.024 78.4866 126.317 78.8178C126.614 79.1489 126.998 79.3039 127.47 79.283C127.822 79.2673 128.106 79.1554 128.322 78.9472C128.538 78.7347 128.681 78.3819 128.752 77.8888L130.589 78.1184C130.437 78.9636 130.101 79.6118 129.583 80.0629C129.065 80.5141 128.354 80.7597 127.451 80.7998C126.425 80.8454 125.591 80.558 124.95 79.9377C124.314 79.3173 123.97 78.4344 123.919 77.2893C123.867 76.1309 124.134 75.2165 124.717 74.5463C125.301 73.8716 126.114 73.5111 127.158 73.4647C128.013 73.4268 128.699 73.5816 129.218 73.9293C129.741 74.2724 130.129 74.8156 130.383 75.559ZM133.516 80.3715L131.659 80.454L131.348 73.4375L133.072 73.3609L133.117 74.3585C133.391 73.8741 133.641 73.5519 133.868 73.3918C134.099 73.2314 134.365 73.1446 134.664 73.1313C135.087 73.1125 135.499 73.2112 135.902 73.4272L135.399 75.0714C135.077 74.8827 134.782 74.7943 134.513 74.8062C134.253 74.8178 134.036 74.9002 133.862 75.0536C133.688 75.2026 133.556 75.4666 133.467 75.8457C133.383 76.2246 133.367 77.0108 133.42 78.2045L133.516 80.3715ZM136.144 76.6403C136.117 76.0237 136.242 75.4201 136.521 74.8296C136.799 74.2391 137.209 73.7796 137.75 73.451C138.296 73.1223 138.913 72.9426 139.6 72.9121C140.661 72.8649 141.546 73.1721 142.255 73.8334C142.964 74.4904 143.342 75.3453 143.389 76.3979C143.436 77.4594 143.132 78.3556 142.476 79.0865C141.824 79.8127 140.978 80.1989 139.939 80.2451C139.296 80.2736 138.675 80.1556 138.076 79.8909C137.482 79.626 137.02 79.2207 136.691 78.6748C136.362 78.1245 136.18 77.4463 136.144 76.6403ZM138.051 76.6549C138.082 77.3508 138.271 77.8764 138.618 78.2317C138.965 78.587 139.38 78.7539 139.865 78.7324C140.349 78.7109 140.746 78.5079 141.056 78.1234C141.37 77.7388 141.511 77.1941 141.48 76.4894C141.449 75.8023 141.261 75.281 140.914 74.9257C140.571 74.5702 140.158 74.4032 139.674 74.4248C139.189 74.4463 138.79 74.6494 138.476 75.034C138.162 75.4187 138.02 75.959 138.051 76.6549ZM143.986 77.9006L145.836 77.5338C145.931 77.8914 146.104 78.1596 146.355 78.3382C146.606 78.5124 146.949 78.5899 147.385 78.5705C147.865 78.5492 148.222 78.445 148.457 78.2581C148.614 78.1275 148.688 77.9587 148.679 77.7517C148.673 77.6108 148.624 77.496 148.531 77.4074C148.435 77.3235 148.224 77.2512 147.899 77.1906C146.387 76.9267 145.425 76.6672 145.012 76.4119C144.44 76.0578 144.139 75.5438 144.109 74.8699C144.082 74.262 144.299 73.7404 144.761 73.3051C145.223 72.8697 145.958 72.6297 146.967 72.5849C147.927 72.5422 148.647 72.6669 149.128 72.9589C149.609 73.2508 149.951 73.699 150.154 74.3034L148.418 74.705C148.331 74.4352 148.178 74.2323 147.961 74.0964C147.747 73.9602 147.447 73.9008 147.059 73.918C146.57 73.9397 146.223 74.0235 146.018 74.1694C145.881 74.2726 145.816 74.4013 145.823 74.5554C145.829 74.6876 145.895 74.7971 146.023 74.8842C146.196 75 146.78 75.1484 147.777 75.3292C148.778 75.5098 149.482 75.7544 149.888 76.0629C150.291 76.376 150.505 76.8277 150.531 77.4179C150.56 78.061 150.315 78.6257 149.799 79.112C149.282 79.5984 148.497 79.8649 147.444 79.9117C146.489 79.9541 145.722 79.794 145.146 79.4312C144.574 79.0683 144.187 78.5581 143.986 77.9006ZM151.24 77.5784L153.091 77.2115C153.186 77.5692 153.359 77.8373 153.61 78.016C153.86 78.1902 154.203 78.2676 154.639 78.2483C155.12 78.2269 155.477 78.1228 155.711 77.9359C155.869 77.8053 155.943 77.6365 155.934 77.4295C155.927 77.2885 155.878 77.1738 155.786 77.0852C155.69 77.0012 155.479 76.9289 155.154 76.8683C153.642 76.6045 152.679 76.345 152.266 76.0897C151.695 75.7355 151.394 75.2215 151.364 74.5476C151.337 73.9398 151.554 73.4182 152.016 72.9828C152.478 72.5475 153.213 72.3074 154.221 72.2626C155.182 72.22 155.902 72.3446 156.383 72.6366C156.864 72.9286 157.206 73.3768 157.409 73.9812L155.673 74.3827C155.586 74.113 155.433 73.9101 155.215 73.7741C155.002 73.638 154.701 73.5785 154.314 73.5957C153.825 73.6174 153.478 73.7013 153.272 73.8472C153.136 73.9504 153.071 74.079 153.078 74.2332C153.083 74.3653 153.15 74.4749 153.278 74.5619C153.45 74.6778 154.035 74.8262 155.032 75.007C156.033 75.1876 156.736 75.4321 157.143 75.7407C157.545 76.0538 157.759 76.5055 157.786 77.0957C157.814 77.7387 157.57 78.3034 157.053 78.7898C156.537 79.2761 155.752 79.5427 154.699 79.5894C153.743 79.6319 152.977 79.4717 152.4 79.109C151.828 78.746 151.442 78.2358 151.24 77.5784ZM162.104 75.944L163.999 75.6744C164.142 76.308 164.394 76.7668 164.755 77.0509C165.121 77.3347 165.601 77.4635 166.196 77.4371C166.825 77.4091 167.293 77.2559 167.598 76.9775C167.908 76.6946 168.055 76.3747 168.039 76.018C168.029 75.7889 167.952 75.5982 167.808 75.4457C167.669 75.2886 167.429 75.158 167.089 75.0539C166.857 74.9848 166.329 74.8671 165.505 74.7006C164.445 74.4873 163.695 74.2007 163.256 73.8407C162.637 73.3341 162.311 72.6977 162.277 71.9313C162.255 71.438 162.373 70.9715 162.632 70.532C162.895 70.0878 163.283 69.7417 163.797 69.4938C164.316 69.2457 164.947 69.1051 165.692 69.0721C166.907 69.0181 167.833 69.244 168.469 69.7497C169.109 70.2553 169.465 70.9522 169.535 71.8406L167.583 72.0133C167.477 71.5193 167.281 71.1706 166.994 70.9671C166.711 70.759 166.294 70.6672 165.744 70.6916C165.176 70.7169 164.736 70.8533 164.425 71.1011C164.224 71.26 164.13 71.465 164.141 71.7161C164.151 71.9451 164.257 72.1368 164.458 72.2912C164.714 72.4872 165.322 72.6765 166.284 72.8588C167.245 73.0412 167.958 73.2434 168.422 73.4655C168.891 73.683 169.262 73.9953 169.536 74.4024C169.814 74.8049 169.967 75.3123 169.994 75.9245C170.019 76.4795 169.888 77.006 169.601 77.5042C169.314 78.0024 168.894 78.383 168.341 78.6459C167.788 78.9043 167.09 79.0523 166.249 79.0896C165.025 79.144 164.072 78.9039 163.39 78.3693C162.709 77.8302 162.28 77.0218 162.104 75.944ZM170.885 75.0972C170.857 74.4805 170.983 73.877 171.261 73.2865C171.539 72.696 171.949 72.2364 172.491 71.9079C173.037 71.5791 173.653 71.3995 174.34 71.369C175.402 71.3218 176.287 71.6289 176.996 72.2903C177.705 72.9473 178.083 73.8021 178.129 74.8548C178.177 75.9163 177.872 76.8125 177.216 77.5433C176.564 78.2696 175.719 78.6558 174.679 78.7019C174.036 78.7305 173.415 78.6125 172.817 78.3478C172.222 78.0829 171.761 77.6775 171.432 77.1316C171.103 76.5814 170.921 75.9032 170.885 75.0972ZM172.792 75.1118C172.823 75.8077 173.012 76.3333 173.359 76.6886C173.705 77.0439 174.121 77.2108 174.605 77.1893C175.09 77.1678 175.487 76.9648 175.796 76.5803C176.11 76.1956 176.252 75.651 176.22 74.9462C176.19 74.2591 176.001 73.7379 175.654 73.3826C175.312 73.0271 174.899 72.8601 174.414 72.8816C173.93 72.9031 173.53 73.1062 173.216 73.4909C172.903 73.8755 172.761 74.4158 172.792 75.1118ZM184.087 78.1252L184.041 77.0747C183.802 77.4604 183.478 77.7705 183.069 78.0049C182.665 78.2391 182.231 78.3665 181.769 78.387C181.297 78.408 180.87 78.3232 180.486 78.1329C180.103 77.9425 179.819 77.6638 179.635 77.2969C179.451 76.9299 179.344 76.4161 179.315 75.7554L179.118 71.3156L180.974 71.2332L181.118 74.4573C181.161 75.4439 181.221 76.0481 181.297 76.2698C181.378 76.4869 181.511 76.6575 181.697 76.7816C181.884 76.9013 182.116 76.955 182.393 76.9427C182.71 76.9286 182.99 76.8301 183.234 76.6471C183.477 76.4598 183.639 76.2363 183.72 75.9768C183.801 75.7128 183.82 75.0787 183.775 74.0745L183.644 71.1146L185.5 71.0321L185.812 78.0486L184.087 78.1252ZM190.37 70.8158L190.435 72.2958L189.167 72.3521L189.292 75.1798C189.318 75.7524 189.344 76.0867 189.37 76.1826C189.401 76.2739 189.459 76.3485 189.546 76.4065C189.636 76.4642 189.743 76.4904 189.867 76.4849C190.039 76.4773 190.285 76.4068 190.605 76.2734L190.828 77.7066C190.405 77.9108 189.92 78.025 189.374 78.0492C189.039 78.0641 188.735 78.0225 188.461 77.9243C188.187 77.8217 187.983 77.6851 187.847 77.5146C187.716 77.3395 187.619 77.1011 187.557 76.7993C187.508 76.5853 187.469 76.1501 187.44 75.4938L187.304 72.4349L186.451 72.4727L186.386 70.9928L187.238 70.9549L187.176 69.5609L188.991 68.3946L189.101 70.8722L190.37 70.8158ZM193.112 68.0196L193.27 71.5807C193.838 70.8537 194.538 70.4718 195.371 70.4348C195.798 70.4158 196.187 70.478 196.538 70.6213C196.888 70.7646 197.155 70.9558 197.338 71.1948C197.525 71.4336 197.656 71.7014 197.731 71.9982C197.81 72.2948 197.864 72.758 197.892 73.3878L198.075 77.5039L196.218 77.5863L196.054 73.8799C196.021 73.1443 195.965 72.679 195.886 72.484C195.806 72.2889 195.674 72.1381 195.488 72.0316C195.307 71.9205 195.082 71.8709 194.813 71.8828C194.505 71.8965 194.233 71.9837 193.997 72.1442C193.762 72.3047 193.593 72.5394 193.492 72.8484C193.395 73.1528 193.36 73.6001 193.386 74.1904L193.542 77.7052L191.686 77.7877L191.256 68.102L193.112 68.0196ZM203.651 75.0187L205.515 75.247C205.307 75.9359 204.954 76.4701 204.454 76.8498C203.959 77.2249 203.326 77.4295 202.555 77.4637C201.335 77.5179 200.414 77.1594 199.793 76.3882C199.302 75.7701 199.035 74.9743 198.992 74.0009C198.94 72.8381 199.204 71.9151 199.782 71.2318C200.361 70.5441 201.115 70.1797 202.044 70.1384C203.088 70.092 203.927 70.4012 204.561 71.0659C205.195 71.7262 205.531 72.7683 205.567 74.1921L200.916 74.3987C200.954 74.9487 201.123 75.3715 201.423 75.6671C201.722 75.9583 202.086 76.0944 202.513 76.0754C202.804 76.0625 203.045 75.9724 203.236 75.805C203.427 75.6376 203.565 75.3755 203.651 75.0187ZM203.674 73.1376C203.636 72.6009 203.48 72.1996 203.203 71.9338C202.926 71.6637 202.598 71.537 202.22 71.5539C201.814 71.5719 201.486 71.7343 201.235 72.0411C200.984 72.348 200.872 72.7545 200.899 73.2609L203.674 73.1376ZM208.719 77.0311L206.863 77.1135L206.551 70.0971L208.275 70.0205L208.32 71.0181C208.594 70.5337 208.844 70.2115 209.071 70.0513C209.302 69.891 209.568 69.8042 209.867 69.7909C210.29 69.7721 210.703 69.8707 211.105 70.0868L210.602 71.731C210.28 71.5422 209.985 71.4539 209.716 71.4658C209.457 71.4773 209.24 71.5598 209.065 71.7132C208.891 71.8621 208.759 72.1262 208.67 72.5052C208.586 72.8841 208.57 73.6704 208.623 74.864L208.719 77.0311ZM218.319 76.6046L216.463 76.6871L216.304 73.1062C216.27 72.3486 216.209 71.8615 216.12 71.6448C216.03 71.4237 215.893 71.2554 215.707 71.1401C215.525 71.0246 215.308 70.9725 215.057 70.9836C214.736 70.9979 214.451 71.0988 214.204 71.2863C213.956 71.4739 213.79 71.7151 213.706 72.0101C213.627 72.3049 213.604 72.8443 213.639 73.6284L213.78 76.8062L211.924 76.8887L211.612 69.8723L213.336 69.7957L213.382 70.8263C213.959 70.0063 214.712 69.5757 215.642 69.5344C216.051 69.5162 216.429 69.5744 216.775 69.7091C217.121 69.8394 217.384 70.0153 217.566 70.2367C217.753 70.4579 217.885 70.7124 217.964 71.0001C218.048 71.2877 218.101 71.7024 218.125 72.2441L218.319 76.6046ZM229.473 72.5411L231.395 73.0581C231.152 74.1281 230.702 74.9358 230.047 75.4813C229.396 76.0222 228.55 76.3157 227.511 76.3618C226.225 76.419 225.148 76.0277 224.281 75.188C223.414 74.3438 222.946 73.1598 222.879 71.6358C222.807 70.0237 223.168 68.7544 223.961 67.8277C224.753 66.8966 225.828 66.4009 227.185 66.3406C228.37 66.288 229.348 66.5954 230.119 67.2629C230.577 67.6573 230.934 68.2373 231.189 69.0027L229.274 69.5511C229.137 69.0541 228.879 68.6684 228.501 68.3939C228.127 68.1192 227.68 67.9935 227.16 68.0165C226.442 68.0484 225.87 68.332 225.443 68.8673C225.021 69.4024 224.836 70.2469 224.887 71.4009C224.942 72.6254 225.201 73.4877 225.664 73.9879C226.128 74.4881 226.712 74.7225 227.417 74.6912C227.936 74.6681 228.376 74.4831 228.736 74.1361C229.096 73.7891 229.341 73.2575 229.473 72.5411ZM234.092 71.0186L232.394 70.7895C232.553 70.1028 232.857 69.5862 233.305 69.2397C233.753 68.8932 234.433 68.6997 235.344 68.6592C236.173 68.6224 236.794 68.6941 237.208 68.8744C237.621 69.0502 237.917 69.2864 238.093 69.5831C238.274 69.8751 238.382 70.4242 238.418 71.2302L238.494 73.3981C238.522 74.0148 238.57 74.4694 238.641 74.7619C238.715 75.0499 238.842 75.3576 239.019 75.6851L237.183 75.7667C237.129 75.6456 237.061 75.4654 236.98 75.2263C236.944 75.1175 236.919 75.0458 236.904 75.0112C236.601 75.3336 236.272 75.5799 235.918 75.7501C235.563 75.9203 235.181 76.0145 234.772 76.0327C234.049 76.0648 233.47 75.8941 233.034 75.5207C232.603 75.1471 232.374 74.6608 232.347 74.0618C232.33 73.6653 232.409 73.3088 232.584 72.992C232.76 72.6709 233.014 72.4213 233.346 72.2433C233.682 72.0607 234.169 71.8934 234.806 71.7415C235.667 71.54 236.261 71.3613 236.59 71.2055L236.581 71.0205C236.566 70.6638 236.466 70.4144 236.283 70.2725C236.1 70.1261 235.764 70.0638 235.275 70.0856C234.945 70.1002 234.69 70.1777 234.511 70.3181C234.332 70.454 234.192 70.6875 234.092 71.0186ZM236.643 72.4146C236.409 72.5044 236.037 72.6158 235.526 72.7488C235.016 72.8818 234.684 73.0047 234.53 73.1175C234.295 73.3 234.184 73.5234 234.195 73.7877C234.207 74.0476 234.314 74.2679 234.516 74.4487C234.718 74.6295 234.969 74.7132 235.269 74.6999C235.603 74.685 235.918 74.5607 236.212 74.327C236.429 74.1497 236.568 73.9383 236.627 73.6929C236.669 73.5322 236.679 73.2294 236.66 72.7845L236.643 72.4146ZM240.176 75.6338L239.746 65.9482L241.602 65.8657L242.033 75.5513L240.176 75.6338ZM243.311 67.511L243.235 65.7932L245.091 65.7107L245.167 67.4285L243.311 67.511ZM243.665 75.4788L243.353 68.4624L245.21 68.3799L245.521 75.3963L243.665 75.4788ZM246.029 68.3435L247.06 68.2977L247.036 67.7692C247.01 67.1789 247.052 66.7358 247.163 66.4396C247.278 66.1432 247.498 65.8973 247.825 65.7018C248.156 65.5018 248.579 65.3903 249.094 65.3674C249.623 65.3439 250.144 65.4002 250.658 65.5363L250.464 66.8424C250.166 66.785 249.88 66.7624 249.607 66.7745C249.338 66.7865 249.148 66.8589 249.034 66.992C248.925 67.1204 248.879 67.363 248.894 67.7197L248.916 68.2152L250.304 68.1536L250.369 69.6137L248.981 69.6753L249.228 75.2317L247.372 75.3142L247.125 69.7578L246.094 69.8036L246.029 68.3435ZM250.793 71.5477C250.765 70.9311 250.891 70.3275 251.169 69.737C251.447 69.1466 251.857 68.687 252.399 68.3585C252.945 68.0297 253.561 67.8501 254.248 67.8195C255.31 67.7724 256.195 68.0795 256.904 68.7409C257.613 69.3979 257.991 70.2527 258.037 71.3054C258.084 72.3669 257.78 73.2631 257.124 73.9939C256.472 74.7201 255.627 75.1064 254.587 75.1525C253.944 75.1811 253.323 75.063 252.724 74.7984C252.13 74.5335 251.669 74.1281 251.34 73.5822C251.011 73.0319 250.828 72.3538 250.793 71.5477ZM252.7 71.5623C252.731 72.2583 252.92 72.7839 253.266 73.1392C253.613 73.4945 254.029 73.6614 254.513 73.6399C254.998 73.6183 255.395 73.4153 255.704 73.0309C256.018 72.6462 256.159 72.1015 256.128 71.3968C256.098 70.7097 255.909 70.1885 255.562 69.8332C255.22 69.4777 254.806 69.3107 254.322 69.3322C253.837 69.3537 253.438 69.5568 253.124 69.9415C252.81 70.3261 252.669 70.8664 252.7 71.5623ZM261.154 74.7019L259.298 74.7844L258.986 67.768L260.71 67.6914L260.755 68.689C261.029 68.2046 261.279 67.8823 261.506 67.7222C261.737 67.5619 262.003 67.4751 262.302 67.4618C262.725 67.443 263.138 67.5416 263.54 67.7577L263.037 69.4019C262.715 69.2131 262.42 69.1247 262.152 69.1367C261.892 69.1482 261.675 69.2307 261.501 69.3841C261.326 69.533 261.195 69.797 261.105 70.1761C261.021 70.555 261.005 71.3413 261.058 72.5349L261.154 74.7019ZM270.754 74.2755L268.898 74.358L268.739 70.7771C268.705 70.0195 268.644 69.5324 268.555 69.3156C268.465 69.0945 268.328 68.9263 268.142 68.811C267.96 68.6955 267.744 68.6433 267.493 68.6545C267.171 68.6688 266.886 68.7697 266.639 68.9572C266.391 69.1447 266.225 69.386 266.141 69.681C266.062 69.9758 266.039 70.5152 266.074 71.2992L266.215 74.4771L264.359 74.5596L264.047 67.5431L265.772 67.4665L265.817 68.4972C266.394 67.6772 267.148 67.2466 268.077 67.2053C268.487 67.1871 268.864 67.2453 269.21 67.38C269.556 67.5103 269.82 67.6861 270.001 67.9076C270.188 68.1288 270.32 68.3833 270.399 68.671C270.483 68.9586 270.537 69.3733 270.561 69.915L270.754 74.2755ZM272.013 66.2361L271.937 64.5183L273.793 64.4358L273.869 66.1536L272.013 66.2361ZM272.367 74.2039L272.055 67.1874L273.912 67.105L274.223 74.1214L272.367 74.2039ZM277.026 69.1115L275.328 68.8824C275.487 68.1957 275.791 67.6791 276.239 67.3326C276.687 66.9861 277.367 66.7926 278.279 66.7521C279.107 66.7153 279.728 66.7871 280.142 66.9673C280.556 67.1431 280.851 67.3793 281.027 67.676C281.208 67.968 281.316 68.5171 281.352 69.3231L281.428 71.4911C281.456 72.1077 281.505 72.5623 281.575 72.8549C281.65 73.1428 281.776 73.4505 281.954 73.7781L280.117 73.8596C280.063 73.7385 279.995 73.5583 279.914 73.3192C279.878 73.2105 279.853 73.1388 279.838 73.1041C279.535 73.4265 279.206 73.6728 278.852 73.843C278.497 74.0132 278.116 74.1074 277.706 74.1256C276.984 74.1577 276.404 73.987 275.969 73.6136C275.537 73.24 275.308 72.7537 275.282 72.1547C275.264 71.7583 275.343 71.4017 275.519 71.085C275.694 70.7638 275.948 70.5142 276.28 70.3362C276.616 70.1536 277.103 69.9863 277.74 69.8344C278.601 69.6329 279.195 69.4542 279.524 69.2984L279.516 69.1134C279.5 68.7567 279.4 68.5073 279.218 68.3654C279.034 68.2191 278.699 68.1567 278.21 68.1785C277.879 68.1931 277.625 68.2706 277.445 68.411C277.266 68.547 277.126 68.7804 277.026 69.1115ZM279.577 70.5075C279.343 70.5973 278.971 70.7087 278.46 70.8417C277.95 70.9748 277.618 71.0976 277.464 71.2104C277.229 71.3929 277.118 71.6163 277.13 71.8806C277.141 72.1405 277.248 72.3608 277.45 72.5416C277.652 72.7224 277.903 72.8061 278.203 72.7928C278.537 72.7779 278.852 72.6536 279.146 72.4199C279.363 72.2426 279.502 72.0312 279.561 71.7858C279.603 71.6251 279.614 71.3223 279.594 70.8775L279.577 70.5075Z" fill="white"/>
</svg>
