<svg preserveAspectRatio="none" width="100%" height="100%" overflow="visible" style="display: block;" viewBox="0 0 64.9961 25" fill="none" xmlns="http://www.w3.org/2000/svg">
<path id="Exclude" d="M58.8281 7.25098C58.7348 7.23971 58.64 7.23396 58.5439 7.23242L57.7979 7.2207L57.1318 7.23145C55.656 7.25544 54.4717 8.45852 54.4717 9.93457V10.9248H57.0674V10.1406C57.0674 9.81221 57.3337 9.54606 57.6621 9.5459H57.7432C58.0416 9.5459 58.2839 9.78751 58.2842 10.0859V11.4385C56.8513 11.8711 55.5539 12.439 54.8779 13.0879C53.472 14.6019 53.9313 17.7102 54.6885 18.3594C55.932 19.7112 58.0675 18.8463 58.4189 17.9541V18.9814H58.8281V25H10.8281V19.1641C10.8682 19.1649 10.9086 19.168 10.9492 19.168H11.4668C13.5372 19.168 14.8719 18.2855 14.8721 16.2402V14.2158H12.0664V15.5723C12.0664 16.0675 11.9035 16.5996 11.4131 16.5996C11.1048 16.5996 10.9279 16.4643 10.8281 16.2627V14.0039H14.8721V10.1035C14.8721 8.2302 13.891 7.21777 11.6025 7.21777H11.0586C10.9804 7.21777 10.9033 7.22201 10.8281 7.22461V0H58.8281V7.25098ZM27.9033 7.16406C26.4542 7.16406 26.0376 7.81253 25.8213 8.16406V7.44531H22.8203V21.8457H25.8486V18.0059C26.3318 18.4791 26.8195 19.1035 27.8662 19.1035H27.9199C29.1007 19.1033 30.2012 18.3757 30.2012 16.8701V9.65137C30.2011 8.42527 29.3526 7.16406 27.9033 7.16406ZM18.582 7.22363C16.212 7.22363 15.2579 8.42928 15.2578 10.001V16.2676C15.258 18.2483 16.5385 19.1738 18.4727 19.1738H18.9902C21.0606 19.1738 22.3953 18.2914 22.3955 16.2461V14.2217H19.5898V15.5781C19.5898 16.0734 19.4269 16.6055 18.9365 16.6055C18.3372 16.6055 18.2314 16.0949 18.2314 15.5781V14.0098H22.3955V10.1094C22.3955 8.23605 21.4144 7.22363 19.126 7.22363H18.582ZM10.8281 9.8418C10.6989 10.0996 10.708 10.464 10.708 10.7598V11.5459H10.8281V14.0039H10.708V15.5723C10.708 15.8232 10.734 16.0724 10.8281 16.2627V19.1641C8.96175 19.1259 7.73452 18.2008 7.73438 16.2617V9.99512C7.73451 8.4753 8.62626 7.30069 10.8281 7.22461V9.8418ZM7.46191 18.9521H4.37988V17.8164C4.16025 18.2907 3.53883 19.0594 2.25 19.0596H2.22266C0.905908 19.0596 0.000176074 18.0682 0 16.6025V9.53125C0 8.43187 0.708057 7.16323 2.2168 7.16309C3.53367 7.16309 3.99695 7.97029 4.32617 8.37988V4.59473H7.46191V18.9521ZM33.9844 4.45996C31.6724 4.45996 30.4609 6.20685 30.4609 8.08301C30.4609 9.48537 30.8908 10.7469 32.1377 11.9219C33.2026 12.9261 35.022 14.189 35.0225 15.1934L35.0498 15.584C35.0498 16.4557 34.1918 16.4102 34.1377 16.4102C33.4627 16.4099 33.2999 15.487 33.2998 14.8428V14.3555L30.4609 14.3281V15.8115C30.7854 18.1947 32.0704 19.0332 34.4082 19.0332C37.166 18.7899 38.0312 17.1134 38.0312 15.1396C38.0312 13.8689 37.7506 12.7791 36.4258 11.5283L34.5557 9.7666C33.5685 8.838 33.3604 8.66215 33.3604 7.86621C33.3607 7.20367 34.0291 7.05618 34.2188 7.08301C34.7053 7.08301 34.8954 7.39269 34.8955 7.86621V8.97559H37.8809V8.13672C37.8807 6.4692 36.9456 4.46023 34.5303 4.45996H33.9844ZM42.2441 7.21777C39.8921 7.21783 38.297 8.36626 38.2969 10.2998V15.5723C38.2969 17.1366 39.2972 19.0872 42.2441 19.0332C45.1912 18.9791 45.7588 16.8971 45.7588 15.5723L45.8945 10.2998C45.8944 8.86688 44.5963 7.21777 42.2441 7.21777ZM50.2236 4.45996C46.7937 4.45999 46.1719 6.87361 46.1719 8.32617V14.9502C46.1719 16.3856 47.01 19.0057 49.6621 19.0059H50.2998C53.1201 18.8977 53.742 16.5463 53.7422 15.9248V14.166H50.6875V14.8154C50.6875 15.3896 50.739 16.4087 49.9297 16.3564C49.0649 16.3005 49.2275 15.6901 49.2275 15.0586L49.3086 7.83984C49.3086 7.83984 49.2972 7.10967 50.0107 7.10938C50.7247 7.10938 50.6875 7.83984 50.6875 7.83984V9.89453H53.7422L53.7148 7.37988C53.7115 7.35488 53.3233 4.46014 50.2236 4.45996ZM64.9961 19.0059H61.9141V3H64.9961V19.0059ZM58.8281 7.25098C60.1691 7.41297 61.204 8.55528 61.2041 9.93555V18.9814H58.8281V7.25098ZM42.0547 9.54297C42.9198 9.54297 42.8389 10.4621 42.8389 11.084V14.707C42.8389 16.2211 42.5954 16.5723 42.0547 16.5723C41.5142 16.5721 41.2383 16.1397 41.2383 14.707V11.084C41.2383 10.4106 41.271 9.54324 42.0547 9.54297ZM58.3311 16.0068C58.3288 16.2951 58.1006 16.531 57.8125 16.543L57.5635 16.5537C57.2823 16.5653 57.0459 16.3428 57.041 16.0615L57.0215 14.8701C57.0093 14.1511 57.514 13.5268 58.2197 13.3887C58.2356 13.3856 58.2512 13.3803 58.2656 13.373L58.3516 13.3301L58.3311 16.0068ZM3.65039 9.75879C3.15656 9.75879 2.93555 10.1667 2.93555 10.8135V15.4365C2.93555 16.0401 3.10169 16.5186 3.65039 16.5186C4.25363 16.5184 4.32617 16.0452 4.32617 15.3555V10.9219C4.32617 10.3184 4.28106 9.759 3.65039 9.75879ZM26.4971 9.65137C27.0338 9.65137 27.1953 9.97887 27.1953 10.5166V15.4102C27.1953 15.8157 27.0339 16.4111 26.4971 16.4111C26.0678 16.4109 25.8213 16.0123 25.8213 15.4102V10.5977C25.8213 10.0816 25.9874 9.65154 26.4971 9.65137ZM18.9365 9.52148C19.6176 9.52148 19.623 10.2488 19.623 10.7656V11.5518H18.2314V10.7656C18.2314 10.2489 18.201 9.5215 18.9365 9.52148ZM11.4131 9.51562C12.0942 9.51562 12.0996 10.243 12.0996 10.7598V11.5459H10.8281V9.8418C10.9247 9.64919 11.0985 9.51563 11.4131 9.51562Z" fill="white"/>
</svg>
