<svg width="65" height="53" viewBox="0 0 65 53" fill="none" xmlns="http://www.w3.org/2000/svg">
<path d="M32.1699 0C45.0611 0.000172058 55.7998 9.20568 58.1768 21.4014C58.1015 21.3938 58.0252 21.3879 57.9482 21.3867L57.21 21.375L56.5508 21.3857C55.0901 21.4097 53.918 22.6006 53.918 24.0615V25.041H56.4873V24.2656C56.4873 23.9405 56.7511 23.6769 57.0762 23.6768H57.1562C57.4519 23.6768 57.6914 23.9163 57.6914 24.2119V25.5498C56.2732 25.978 54.9883 26.5404 54.3193 27.1826C52.9282 28.6813 53.3825 31.7586 54.1318 32.4014C55.3626 33.7393 57.4769 32.8831 57.8252 32V33.0166H57.8604C54.9562 44.5006 44.5563 52.9989 32.1699 52.999C19.7738 52.999 9.36651 44.4878 6.47168 32.9902H7.38672V18.7783H6.81348C10.119 7.90943 20.2205 0 32.1699 0ZM27.6191 21.3213C26.1846 21.3214 25.7727 21.9636 25.5586 22.3115V21.5996H22.5879V35.8535H25.585V32.0537C26.0631 32.5221 26.546 33.1396 27.582 33.1396H27.6357C28.8045 33.1395 29.8943 32.4197 29.8945 30.9297V23.7832C29.8944 22.5696 29.0537 21.3213 27.6191 21.3213ZM18.3838 21.3789C16.0379 21.3789 15.0939 22.5722 15.0938 24.1279V30.3311C15.0939 32.2917 16.3618 33.208 18.2764 33.208H18.7881C20.8376 33.208 22.1591 32.3343 22.1592 30.3096V28.3057H19.3818V29.6484C19.3818 30.1386 19.2206 30.6659 18.7354 30.666C18.1421 30.666 18.0381 30.16 18.0381 29.6484V28.0967H22.1592V24.2354C22.1592 22.381 21.1881 21.3789 18.9229 21.3789H18.3838ZM10.9443 21.375C8.59841 21.375 7.65449 22.5683 7.6543 24.124V30.3271C7.65442 32.2878 8.92233 33.2041 10.8369 33.2041H11.3486C13.3981 33.2041 14.7197 32.3304 14.7197 30.3057V28.3018H11.9424V29.6445C11.9424 30.1347 11.7812 30.662 11.2959 30.6621C10.7026 30.6621 10.5986 30.1561 10.5986 29.6445V28.0928H14.7197V24.2314C14.7197 22.3771 13.7487 21.375 11.4834 21.375H10.9443ZM6.81348 18.7783C6.07046 21.2214 5.66992 23.814 5.66992 26.5C5.66994 28.7392 5.94875 30.9133 6.47168 32.9902H4.33594V31.8652C4.11868 32.3347 3.50292 33.0967 2.22656 33.0967H2.19922C0.896005 33.0964 7.02751e-05 32.1148 0 30.6641V23.665C0 22.5768 0.700882 21.3204 2.19434 21.3203C3.49785 21.3203 3.95635 22.12 4.28223 22.5254V18.7783H6.81348ZM41.8037 21.375C39.4755 21.3751 37.8966 22.5118 37.8965 24.4258V29.6445C37.8965 31.193 38.8867 33.1238 41.8037 33.0703C44.7209 33.0168 45.2832 30.9559 45.2832 29.6445L45.417 24.4258C45.4169 23.0074 44.132 21.375 41.8037 21.375ZM33.6475 18.6445C31.3593 18.6447 30.1603 20.3735 30.1602 22.2305C30.1602 23.6186 30.5851 24.8682 31.8193 26.0312C32.8736 27.0255 34.6748 28.2753 34.6748 29.2695L34.7021 29.6562C34.7019 30.5188 33.8533 30.4736 33.7998 30.4736C33.1315 30.4735 32.9708 29.5596 32.9707 28.9219V28.4395L30.1602 28.4131V29.8809C30.4813 32.2399 31.7533 33.0693 34.0674 33.0693C36.7972 32.8285 37.6533 31.1695 37.6533 29.2158C37.6533 27.958 37.3758 26.8797 36.0645 25.6416L34.2139 23.8975C33.2368 22.9783 33.0303 22.8045 33.0303 22.0166C33.0303 21.3605 33.692 21.2137 33.8799 21.2402C34.3616 21.2402 34.5488 21.5477 34.5488 22.0166V23.1143H37.5049V22.2842C37.5048 20.6334 36.5788 18.6445 34.1875 18.6445H33.6475ZM49.7217 18.6445C46.3265 18.6446 45.7109 21.0339 45.7109 22.4717V29.0283C45.7109 30.4492 46.5406 33.043 49.166 33.043H49.7969C52.5884 32.9359 53.2039 30.6085 53.2041 29.9932V28.2529H50.1807V28.8945C50.1807 29.4629 50.2319 30.4716 49.4307 30.4199C48.5747 30.3645 48.7353 29.7608 48.7354 29.1357L48.8154 21.9902C48.8154 21.9902 48.805 21.2676 49.5117 21.2676C50.218 21.2679 50.1807 21.9902 50.1807 21.9902V24.0234H53.2041L53.1777 21.5352C53.1777 21.5352 52.8032 18.6448 49.7217 18.6445ZM64.3379 33.043H61.2871V17.1992H64.3379V33.043ZM58.1768 21.4014C59.5299 21.5376 60.582 22.678 60.582 24.0625V33.0166H57.8604C58.3876 30.9317 58.6689 28.7488 58.6689 26.5C58.6689 24.7559 58.4984 23.0514 58.1768 21.4014ZM41.6162 23.6768C42.4726 23.6768 42.3926 24.5866 42.3926 25.2021V28.7881C42.3926 30.2868 42.1515 30.6348 41.6162 30.6348C41.0812 30.6346 40.8076 30.2062 40.8076 28.7881V25.2021C40.8076 24.5355 40.8404 23.677 41.6162 23.6768ZM57.7334 30.0723C57.7311 30.3575 57.5056 30.5915 57.2207 30.6035L56.9736 30.6133C56.6954 30.6247 56.4618 30.4044 56.457 30.126L56.4365 28.9473C56.4245 28.2358 56.9249 27.6184 57.623 27.4814C57.6387 27.4784 57.6547 27.4729 57.6689 27.4658L57.7539 27.4229L57.7334 30.0723ZM3.61328 23.8896C3.12452 23.8896 2.90532 24.2935 2.90527 24.9336V29.5107C2.90536 30.108 3.07029 30.5811 3.61328 30.5811C4.21048 30.5809 4.28223 30.1124 4.28223 29.4297V25.041C4.28223 24.4436 4.23763 23.8898 3.61328 23.8896ZM26.2275 23.7832C26.7588 23.7832 26.9179 24.1075 26.918 24.6396V29.4844C26.9179 29.8858 26.7587 30.4746 26.2275 30.4746C25.8026 30.4745 25.5587 30.0803 25.5586 29.4844V24.7197C25.5587 24.2089 25.723 23.7833 26.2275 23.7832ZM18.7354 23.6533C19.4093 23.6534 19.4141 24.3733 19.4141 24.8848V25.6631H18.0381V24.8848C18.0381 24.3732 18.0073 23.6533 18.7354 23.6533ZM11.2959 23.6494C11.9699 23.6495 11.9746 24.3694 11.9746 24.8809V25.6592H10.5986V24.8809C10.5986 24.3693 10.5678 23.6494 11.2959 23.6494Z" fill="black"/>
</svg>
