<svg width="138" height="19" viewBox="0 0 138 19" fill="none" xmlns="http://www.w3.org/2000/svg">
<path d="M10.2973 10.5461V10.0344H16.121C16.3159 10.0344 16.4134 10.0832 16.4134 10.1806V10.9116L14.9757 11.3503V16.6622C14.4722 16.9546 13.8955 17.2064 13.2457 17.4176C12.6122 17.6125 11.938 17.7587 11.2232 17.8562C10.5247 17.9699 9.83433 18.0268 9.15206 18.0268C7.36516 18.0268 5.83004 17.6694 4.54672 16.9546C3.2634 16.2236 2.27248 15.2002 1.57396 13.8844C0.875442 12.5686 0.526183 11.0091 0.526183 9.20596C0.526183 7.48404 0.86732 5.95705 1.54959 4.62499C2.24811 3.29293 3.23903 2.25328 4.52235 1.50603C5.82192 0.758777 7.37328 0.385152 9.17643 0.385152C9.79372 0.385152 10.411 0.425763 11.0283 0.506986C11.6456 0.571965 12.2548 0.685677 12.8558 0.848122C13.4569 1.01057 14.0417 1.22175 14.6102 1.48166L14.3178 5.47783H13.7087C13.4975 5.47783 13.335 5.36412 13.2213 5.13669C13.1076 4.82805 12.9777 4.42193 12.8315 3.91835C12.7015 3.41477 12.6122 2.91931 12.5634 2.43197C12.1086 2.15581 11.5887 1.94463 11.0039 1.79843C10.4191 1.65223 9.7856 1.57913 9.10333 1.57913C7.94996 1.57913 6.91843 1.87153 6.00873 2.45634C5.11528 3.0249 4.40052 3.83713 3.86445 4.89303C3.32838 5.94892 3.06034 7.216 3.06034 8.69426C3.06034 10.3837 3.32025 11.8457 3.84008 13.0803C4.37615 14.2986 5.10716 15.2408 6.0331 15.9069C6.97529 16.5729 8.06367 16.9059 9.29826 16.9059C9.98054 16.9059 10.6222 16.8166 11.2232 16.6379C11.8405 16.4429 12.3604 16.183 12.7827 15.8581V12.0082C12.7827 11.732 12.6203 11.5371 12.2954 11.4234C11.9867 11.2934 11.4588 11.1553 10.7115 11.0091C10.5491 10.9766 10.4354 10.9198 10.3704 10.8385C10.3217 10.7573 10.2973 10.6599 10.2973 10.5461ZM22.0082 17.5882C22.0082 17.6856 21.9107 17.7344 21.7158 17.7344H17.2567V17.2714C17.2567 17.044 17.346 16.9059 17.5247 16.8572C17.9633 16.7272 18.2638 16.6054 18.4263 16.4917C18.605 16.378 18.7349 16.2074 18.8161 15.98L24.2256 1.11616C24.388 1.01869 24.5992 0.929345 24.8591 0.848122C25.119 0.750654 25.3871 0.661309 25.6632 0.580086C25.9394 0.498863 26.1749 0.442007 26.3699 0.409518L32.4372 16.4673L33.753 16.8815V17.5882C33.753 17.6856 33.6637 17.7344 33.485 17.7344H28.0024V17.2714C28.0024 17.044 28.0918 16.9059 28.2705 16.8572C28.8715 16.711 29.2695 16.581 29.4645 16.4673C29.6594 16.3373 29.7163 16.1424 29.635 15.8825L28.2218 12.0813H21.7645L20.3025 16.4673L22.0082 16.8815V17.5882ZM22.1544 10.9116H27.8075L24.8348 2.84621L22.1544 10.9116ZM46.0773 12.8366H46.9058V17.7344H35.0878V17.2714C35.0878 17.0602 35.1853 16.9221 35.3802 16.8572C35.8676 16.7272 36.2087 16.5973 36.4036 16.4673C36.5986 16.3211 36.696 16.1343 36.696 15.9069V2.62691C36.696 2.35075 36.5986 2.14769 36.4036 2.01773C36.2087 1.87153 35.8676 1.72533 35.3802 1.57913C35.1853 1.5304 35.0878 1.39232 35.0878 1.16489V0.677554H40.6191C40.814 0.677554 40.9115 0.73441 40.9115 0.848122V1.55476L39.1084 1.99337V16.6135C40.2455 16.6135 41.277 16.6054 42.203 16.5891C43.1451 16.5566 44.0061 16.5079 44.7858 16.4429C44.8671 16.0368 44.9564 15.6145 45.0539 15.1759C45.1513 14.7372 45.2569 14.3311 45.3706 13.9575C45.4844 13.5839 45.5899 13.2996 45.6874 13.1047C45.7849 12.926 45.9148 12.8366 46.0773 12.8366ZM64.5148 8.71863C64.5148 10.3593 64.2549 11.7564 63.735 12.9097C63.2152 14.0631 62.4923 15.0053 61.5664 15.7363C60.6567 16.4673 59.6089 17.0034 58.423 17.3445C57.2372 17.6694 55.9864 17.8318 54.6705 17.8318C54.1995 17.8318 53.6634 17.8237 53.0623 17.8075C52.4775 17.7912 51.9252 17.775 51.4054 17.7587C50.9018 17.7425 50.5119 17.7344 50.2358 17.7344H48.9687V17.2714C48.9687 17.0602 49.0662 16.9221 49.2611 16.8572C49.7484 16.7272 50.0896 16.5973 50.2845 16.4673C50.4794 16.3211 50.5769 16.1018 50.5769 15.8094V2.62691C50.5769 2.35075 50.4794 2.14769 50.2845 2.01773C50.0896 1.87153 49.7484 1.72533 49.2611 1.57913C49.0662 1.5304 48.9687 1.39232 48.9687 1.16489V0.677554H50.3576C50.6987 0.677554 51.2673 0.661309 52.0633 0.62882C52.8593 0.596331 53.7771 0.580086 54.8167 0.580086C56.9935 0.580086 58.7967 0.9131 60.2262 1.57913C61.672 2.22891 62.7441 3.16298 63.4426 4.38132C64.1574 5.59967 64.5148 7.04543 64.5148 8.71863ZM54.4512 1.77406C54.2238 1.77406 53.9802 1.78219 53.7202 1.79843C53.4766 1.81467 53.2329 1.83092 52.9892 1.84716V16.3455C53.2654 16.4429 53.5822 16.5242 53.9395 16.5891C54.2969 16.6541 54.7518 16.6866 55.3041 16.6866C56.1001 16.6866 56.8879 16.5729 57.6677 16.3455C58.4637 16.1018 59.1865 15.7038 59.8363 15.1515C60.4861 14.5992 60.9978 13.8357 61.3714 12.861C61.7613 11.8863 61.9562 10.668 61.9562 9.20596C61.9562 7.4353 61.6638 6.00578 61.079 4.91739C60.5105 3.829 59.6658 3.03302 58.5449 2.52944C57.424 2.02586 56.0595 1.77406 54.4512 1.77406ZM78.6079 13.6895H79.3633V17.7344H67.2042V17.2714C67.2042 17.0602 67.3017 16.9221 67.4966 16.8572C67.9839 16.7272 68.3251 16.5973 68.52 16.4673C68.7149 16.3211 68.8124 16.1343 68.8124 15.9069V2.5538C68.8124 2.32638 68.7149 2.14769 68.52 2.01773C68.3251 1.87153 67.9839 1.72533 67.4966 1.57913C67.3017 1.5304 67.2042 1.39232 67.2042 1.16489V0.677554H79.1683V4.77119H78.413C78.3317 4.77119 78.2586 4.74682 78.1937 4.69809C78.1287 4.64936 78.0718 4.57626 78.0231 4.47879C77.8769 4.20263 77.7307 3.829 77.5845 3.35791C77.4383 2.88682 77.3083 2.43197 77.1946 1.99337C76.3824 1.91214 75.4727 1.86341 74.4655 1.84716C73.4584 1.81468 72.3781 1.79843 71.2247 1.79843V8.45059L75.6839 8.30439C75.7651 7.96325 75.8626 7.63836 75.9763 7.32971C76.1062 7.00482 76.2118 6.75303 76.293 6.57434C76.3418 6.47687 76.3824 6.40377 76.4149 6.35504C76.4636 6.3063 76.5205 6.28194 76.5855 6.28194H77.2677V11.5208H76.5855C76.488 11.5208 76.3905 11.4315 76.293 11.2528C76.2118 11.1066 76.1144 10.8873 76.0006 10.5949C75.8869 10.2862 75.7895 9.96946 75.7082 9.64457L71.2247 9.49837V16.6135C72.4268 16.6135 73.5396 16.6054 74.563 16.5891C75.6027 16.5566 76.5448 16.4998 77.3896 16.4186C77.5033 15.98 77.6332 15.5332 77.7794 15.0784C77.9256 14.6073 78.0718 14.2418 78.218 13.9819C78.2668 13.8682 78.3155 13.7951 78.3642 13.7626C78.4292 13.7138 78.5104 13.6895 78.6079 13.6895ZM87.7388 17.5882C87.7388 17.6856 87.6494 17.7344 87.4707 17.7344H87.0077H82.0369V17.2958C82.0369 17.1821 82.0613 17.0927 82.11 17.0277C82.1587 16.9465 82.2318 16.8897 82.3293 16.8572C82.8166 16.7272 83.1578 16.5973 83.3527 16.4673C83.5476 16.3211 83.6451 16.1018 83.6451 15.8094V14.9809V2.62691C83.6451 2.35075 83.5476 2.14769 83.3527 2.01773C83.1578 1.87153 82.8166 1.72533 82.3293 1.57913C82.2318 1.54664 82.1587 1.49791 82.11 1.43293C82.0613 1.3517 82.0369 1.26236 82.0369 1.16489V0.677554H83.0847C83.2146 0.677554 83.3771 0.677554 83.572 0.677554C83.767 0.661309 83.9863 0.653187 84.2299 0.653187C84.6685 0.636943 85.1559 0.620698 85.6919 0.604454C86.2443 0.588208 86.7966 0.580086 87.3489 0.580086C87.7225 0.580086 88.0799 0.588208 88.421 0.604454C88.7622 0.620698 89.0952 0.653187 89.4201 0.70192C91.2395 0.880611 92.5715 1.36795 93.4162 2.16393C94.2772 2.95992 94.7077 3.99957 94.7077 5.2829C94.7077 6.38753 94.3828 7.31347 93.733 8.06072C93.0995 8.79173 92.2466 9.35217 91.1745 9.74204C91.4344 10.2294 91.7268 10.7654 92.0517 11.3503C92.3928 11.9351 92.7502 12.5361 93.1238 13.1534C93.4975 13.7707 93.863 14.3717 94.2203 14.9565C94.594 15.5251 94.927 16.0287 95.2194 16.4673L96.7545 16.9059V17.5882C96.7545 17.6856 96.657 17.7344 96.4621 17.7344H93.9523C93.53 17.7344 93.2132 17.6613 93.002 17.5151C92.8071 17.3526 92.5634 16.9952 92.271 16.4429L89.0058 10.2537C88.5347 10.335 88.0474 10.3999 87.5438 10.4487C87.0565 10.4812 86.561 10.4974 86.0574 10.4974V16.4429L87.7388 16.9059V17.5882ZM87.4464 1.77406C87.2189 1.77406 86.9834 1.78219 86.7397 1.79843C86.5123 1.81467 86.2849 1.83092 86.0574 1.84716V9.1085C86.2849 9.15723 86.5448 9.19784 86.8372 9.23033C87.1458 9.26282 87.4301 9.27907 87.69 9.27907C88.551 9.27907 89.3145 9.14911 89.9805 8.8892C90.6628 8.61304 91.1989 8.1988 91.5887 7.64648C91.9948 7.07792 92.1979 6.36316 92.1979 5.5022C92.1979 4.64123 92.0273 3.93459 91.6862 3.38228C91.3613 2.82996 90.8496 2.42385 90.1511 2.16393C89.4526 1.90402 88.551 1.77406 87.4464 1.77406ZM102.689 17.5882C102.689 17.6856 102.599 17.7344 102.421 17.7344H97.6933V17.2958C97.6933 17.1821 97.7096 17.0927 97.7421 17.0277C97.7745 16.9465 97.8395 16.8897 97.937 16.8572C98.4243 16.7272 98.7573 16.5973 98.936 16.4673C99.131 16.3211 99.2447 16.0855 99.2772 15.7607L100.593 2.70001C100.642 2.37511 100.544 2.14769 100.301 2.01773C100.073 1.87153 99.6914 1.73345 99.1553 1.60349C99.0416 1.57101 98.9604 1.52227 98.9117 1.45729C98.8629 1.39232 98.8386 1.31109 98.8386 1.21363V0.677554H103.322L108.61 14.7372L113.605 0.677554H118.015C118.178 0.677554 118.259 0.718165 118.259 0.799388V1.55476L116.431 2.09083L117.747 16.4673L119.404 16.9059V17.5882C119.404 17.6856 119.323 17.7344 119.161 17.7344H113.727V17.2958C113.727 17.1821 113.743 17.0927 113.775 17.0277C113.808 16.9465 113.881 16.8897 113.995 16.8572C114.433 16.7272 114.766 16.5973 114.994 16.4673C115.221 16.3373 115.319 16.1343 115.286 15.8581L114.238 3.33354L108.829 17.7344H107.221L101.738 3.33354L100.812 16.4429L102.689 16.9059V17.5882ZM125.306 17.5882C125.306 17.6856 125.208 17.7344 125.013 17.7344H120.554V17.2714C120.554 17.044 120.644 16.9059 120.822 16.8572C121.261 16.7272 121.561 16.6054 121.724 16.4917C121.902 16.378 122.032 16.2074 122.114 15.98L127.523 1.11616C127.686 1.01869 127.897 0.929345 128.157 0.848122C128.417 0.750654 128.685 0.661309 128.961 0.580086C129.237 0.498863 129.472 0.442007 129.667 0.409518L135.735 16.4673L137.051 16.8815V17.5882C137.051 17.6856 136.961 17.7344 136.783 17.7344H131.3V17.2714C131.3 17.044 131.389 16.9059 131.568 16.8572C132.169 16.711 132.567 16.581 132.762 16.4673C132.957 16.3373 133.014 16.1424 132.933 15.8825L131.519 12.0813H125.062L123.6 16.4673L125.306 16.8815V17.5882ZM125.452 10.9116H131.105L128.132 2.84621L125.452 10.9116Z" fill="black"/>
</svg>
