<svg width="107" height="23" viewBox="0 0 107 23" fill="none" xmlns="http://www.w3.org/2000/svg">
<path fill-rule="evenodd" clip-rule="evenodd" d="M9.08468 0.938984C6.67411 1.39107 4.40685 3.37063 2.87526 6.36039C2.0944 7.88474 1.5027 9.71687 1.1736 11.6293C0.930103 13.0445 0.868119 15.6316 1.05243 16.6886C1.68643 20.3251 3.8359 22.2503 7.10125 22.1064C8.85551 22.0292 10.112 21.317 11.5712 19.5729C12.7241 18.195 13.7168 16.6328 15.8735 12.8031L16.9277 10.9311L18.8773 14.1726C21.1149 17.8929 21.9637 19.1121 23.122 20.2704C24.4494 21.5979 25.3835 22.0355 27.0389 22.1058C29.3822 22.2054 30.9829 21.2986 31.9614 19.3175C32.7439 17.7332 33.0176 15.9917 32.8706 13.5309C32.64 9.66847 31.4678 6.36796 29.4266 3.8335C27.3249 1.22413 24.2374 0.223072 21.7218 1.33559C20.5704 1.8448 19.1477 3.05462 17.9798 4.51788L17.3445 5.31381L16.9395 4.81176C16.3419 4.07107 15.134 2.88076 14.4765 2.38455C13.8072 1.87954 12.6332 1.282 11.9246 1.08575C11.4423 0.952237 9.53874 0.853868 9.08468 0.938984ZM25.258 4.0472C27.4482 5.12967 29.1038 8.24809 29.6765 12.3702C29.8178 13.3871 29.8173 15.8595 29.6757 16.4786C29.3441 17.9291 28.6603 18.5855 27.4556 18.6095C25.9465 18.6396 25.2672 17.8306 21.2825 11.2589C20.4453 9.87805 19.5795 8.47956 19.3588 8.15112C18.8957 7.46245 18.8748 7.58263 19.6463 6.49712C20.2702 5.61921 21.1357 4.70219 21.7201 4.29958C22.4295 3.81103 22.9038 3.67767 23.8287 3.7069C24.5547 3.72978 24.6725 3.75777 25.258 4.0472ZM11.7675 4.79249C12.2904 5.05072 12.5823 5.27734 13.2501 5.94329C13.7074 6.39941 14.3502 7.13277 14.6784 7.57292L15.2751 8.37321L14.2487 9.96012C13.6841 10.8329 12.7481 12.2879 12.1686 13.1934C10.8269 15.2897 10.1118 16.3159 9.40704 17.1559C8.42211 18.33 7.46929 18.7944 6.45761 18.5935C4.92701 18.2895 4.23431 16.5871 4.46785 13.7032C4.82025 9.35163 6.69197 5.58439 8.98014 4.62119C9.39642 4.44594 9.55776 4.42437 10.2858 4.4461C11.0612 4.46932 11.1597 4.49228 11.7675 4.79249Z" fill="black"/>
<path fill-rule="evenodd" clip-rule="evenodd" d="M39.6288 1.64834C39.6073 1.70497 39.5991 6.25192 39.6108 11.7528L39.632 21.7543H41.2783H42.9247L42.9658 14.119L43.007 6.48373L45.9292 11.7523L48.8515 17.0209L50.4039 17.0004L51.9564 16.9799L54.8902 11.6992L57.8241 6.41837L57.845 14.107L57.866 21.7955H59.512H61.1579V11.669V1.54248L59.1732 1.56454L57.1885 1.5866L53.8432 7.65403C52.0032 10.9911 50.4769 13.723 50.4515 13.7249C50.426 13.7268 48.8895 10.9872 47.0371 7.63691L43.6693 1.54544H41.6687C40.1439 1.54544 39.6586 1.56989 39.6288 1.64834ZM82.2311 4.4677V6.64911H80.7494H79.2677V8.00734V9.36557H80.7434H82.2193L82.2522 13.6255C82.2835 17.6639 82.2945 17.9207 82.4626 18.5643C82.9355 20.3737 84.0539 21.5225 85.7389 21.9296C86.5168 22.1175 88.3012 22.1139 89.1862 21.9227C89.548 21.8445 89.8722 21.7632 89.9065 21.742C89.9408 21.7208 89.9689 21.11 89.9689 20.3846V19.0659L89.4132 19.1341C88.5607 19.2389 87.3385 19.2155 86.8915 19.0858C86.3559 18.9303 85.9259 18.504 85.6807 17.8854C85.4856 17.3928 85.4849 17.3805 85.4582 13.3785L85.4315 9.36557H87.7002H89.9689V8.00734V6.64911H87.7052H85.4414V4.4677V2.2863H83.8363H82.2311V4.4677ZM69.994 6.43582C68.3192 6.7562 66.8719 7.58744 65.8372 8.82327C65.2207 9.55959 64.5175 10.9652 64.2688 11.9586C64.1088 12.5978 64.0834 12.9139 64.0838 14.2634C64.0842 15.6378 64.1072 15.9123 64.2738 16.5272C64.6722 17.9974 65.3955 19.2166 66.4518 20.1981C67.7606 21.4142 69.2416 22.0023 71.2417 22.1002C72.9359 22.1832 74.403 21.8901 75.8515 21.1795C76.7053 20.7606 77.8642 19.973 77.9286 19.7678C77.9505 19.698 76.9206 18.3565 76.3107 17.6606C76.2818 17.6275 76.0554 17.7669 75.8078 17.9703C75.2385 18.4382 74.2795 18.9392 73.5878 19.1302C73.1844 19.2416 72.7589 19.2775 71.8591 19.2759C70.5798 19.2736 70.1361 19.1746 69.355 18.7167C68.8652 18.4296 68.1278 17.6197 67.8439 17.0573C67.6054 16.5847 67.3317 15.7879 67.3317 15.5662C67.3317 15.4784 68.359 15.4542 72.8263 15.437L78.321 15.4159L78.3469 14.8397C78.3613 14.5227 78.333 13.8499 78.2843 13.3444C77.941 9.78275 76.1825 7.37243 73.3408 6.56835C72.5388 6.3414 70.8391 6.27415 69.994 6.43582ZM97.1032 6.44578C95.844 6.68368 94.618 7.33341 93.7132 8.2426C92.1218 9.84136 91.3471 12.0773 91.4733 14.707C91.5856 17.0477 92.3168 18.823 93.7486 20.2314C94.804 21.2695 95.7764 21.7846 97.1265 22.0208C97.9568 22.1661 99.298 22.1177 100.044 21.9156C101.107 21.6276 102.264 20.9134 102.873 20.1694L103.181 19.7928L103.222 20.7736L103.263 21.7543L104.807 21.7767L106.35 21.7991V14.2223V6.64548L104.807 6.66787L103.263 6.69026L103.24 7.58291L103.216 8.47556L102.61 7.89967C101.949 7.27208 101.023 6.75529 100.135 6.51954C99.4335 6.33309 97.8975 6.2958 97.1032 6.44578ZM72.3913 9.24481C73.4116 9.51053 74.1695 10.1268 74.6522 11.083C74.9 11.5737 75.1482 12.43 75.1506 12.8023L75.1518 12.9875H71.2417C66.799 12.9875 67.2193 13.0706 67.4631 12.2411C67.7919 11.1223 68.5886 10.0601 69.4509 9.59079C70.2947 9.13146 71.4393 8.99679 72.3913 9.24481ZM100.535 9.45027C101.561 9.76711 102.479 10.5528 102.977 11.5396L103.222 12.026V14.2192V16.4125L103.007 16.8434C102.534 17.7941 101.461 18.6837 100.385 19.0178C99.5751 19.2696 98.2972 19.2634 97.5489 19.0041C96.33 18.5817 95.5019 17.704 95.0177 16.3214C94.7985 15.6954 94.7872 15.5915 94.7893 14.2223C94.7914 12.8811 94.8063 12.7407 95.0057 12.1863C95.498 10.818 96.312 9.92903 97.4719 9.49333C98.3318 9.17031 99.5722 9.15286 100.535 9.45027Z" fill="black"/>
</svg>
